<?xml version="1.0" standalone="no"?>
<!DOCTYPE svg PUBLIC "-//W3C//DTD SVG 20010904//EN"
 "http://www.w3.org/TR/2001/REC-SVG-20010904/DTD/svg10.dtd">
<svg version="1.0" xmlns="http://www.w3.org/2000/svg"
 width="250.000000pt" height="250.000000pt" viewBox="0 0 250.000000 250.000000"
 preserveAspectRatio="xMidYMid meet">
<metadata>
Created by potrace 1.14, written by Peter Selinger 2001-2017
</metadata>
<g transform="translate(0.000000,250.000000) scale(0.100000,-0.100000)"
fill="#000000" stroke="none">
<path d="M1115 2261 c-3 -5 -2 -12 3 -15 5 -3 9 1 9 9 0 17 -3 19 -12 6z"/>
<path d="M1015 2230 c6 -30 16 -40 12 -12 -2 12 -6 24 -10 28 -3 4 -4 -4 -2
-16z"/>
<path d="M1157 2228 c9 -10 13 -21 9 -25 -4 -4 -11 -1 -17 7 -7 12 -8 9 -7 -9
2 -14 -3 -26 -12 -28 -13 -4 -13 -3 0 6 9 7 10 11 3 11 -6 0 -10 9 -8 20 2 11
-1 20 -6 20 -5 0 -9 -6 -7 -12 1 -7 -1 -26 -6 -43 -6 -26 -9 -27 -17 -12 -14
24 -29 21 -24 -4 4 -20 3 -21 -14 -5 -16 14 -20 15 -30 2 -7 -9 -23 -13 -38
-10 -24 5 -25 3 -12 -13 13 -17 13 -17 -7 0 -25 21 -41 23 -24 2 9 -10 9 -15
1 -16 -11 -2 -25 -5 -38 -9 -5 -1 -15 -3 -23 -4 -8 0 -14 -6 -13 -13 2 -8 -4
-10 -14 -6 -10 4 -14 2 -10 -4 3 -5 0 -10 -8 -10 -10 0 -12 4 -5 12 5 7 6 16
2 20 -4 5 1 5 10 2 12 -4 15 -2 11 8 -3 8 -9 13 -13 10 -5 -3 -11 1 -14 7 -3
7 -3 0 -1 -15 3 -23 1 -28 -12 -23 -8 4 -22 1 -29 -5 -11 -9 -14 -8 -14 5 0 9
-4 16 -10 16 -5 0 -7 -7 -3 -15 3 -10 0 -15 -8 -13 -9 2 -15 -8 -17 -26 -2
-16 0 -26 6 -22 6 3 8 16 4 28 -3 14 -2 19 7 14 6 -4 9 -12 6 -17 -4 -5 -2 -9
2 -9 5 0 14 9 21 20 14 23 29 26 29 6 0 -8 -6 -12 -15 -8 -9 3 -13 1 -9 -5 6
-10 -40 -38 -57 -34 -5 1 -6 -5 -2 -14 3 -9 2 -13 -4 -10 -15 9 -48 -17 -43
-34 4 -14 4 -14 -6 -1 -10 13 -15 8 -12 -13 0 -4 -5 -6 -11 -5 -7 2 -12 -3
-10 -10 1 -8 -2 -11 -7 -7 -12 7 -33 -29 -23 -41 4 -5 -2 -2 -12 6 -20 16 -22
16 -45 -3 -11 -10 -13 -9 -9 3 2 8 13 15 24 15 12 0 19 7 19 20 0 15 6 19 23
18 15 -2 21 1 16 9 -5 7 -3 8 6 3 9 -6 11 -4 5 5 -6 9 -4 11 5 5 9 -6 11 -4 5
5 -5 9 -4 11 3 6 8 -5 10 -2 6 8 -7 19 -25 22 -22 4 2 -7 -12 -19 -29 -27 -18
-8 -33 -21 -33 -28 0 -16 -12 -17 -28 -1 -9 9 -11 6 -7 -11 3 -15 -4 -31 -20
-47 -13 -13 -21 -24 -18 -24 4 0 0 -6 -8 -12 -8 -7 -12 -12 -10 -11 2 2 10 -2
18 -9 10 -8 12 -8 8 4 -3 8 3 26 14 39 l20 24 -3 -26 c-1 -14 -10 -36 -19 -49
-9 -13 -13 -28 -10 -34 4 -6 0 -5 -9 2 -11 9 -18 10 -23 2 -3 -5 -1 -10 5 -10
17 0 7 -23 -11 -25 -9 -2 -16 3 -16 11 0 7 4 11 9 8 5 -3 8 -2 7 3 -4 23 2 35
16 29 8 -3 15 0 15 5 0 6 -9 9 -20 6 -10 -3 -21 0 -24 7 -3 6 -5 4 -5 -4 2
-32 -1 -41 -13 -34 -10 6 -10 4 0 -8 11 -14 10 -18 -5 -27 -15 -8 -16 -12 -5
-23 9 -8 12 -9 10 -1 -3 11 1 13 25 13 6 0 4 -5 -6 -11 -9 -6 -14 -15 -11 -21
4 -7 2 -8 -4 -4 -7 4 -12 3 -12 -2 0 -6 -8 -13 -17 -16 -15 -6 -15 -4 2 14 10
11 13 20 7 20 -7 0 -12 -5 -12 -11 0 -5 -4 -8 -8 -5 -4 2 -9 -4 -9 -15 -1 -10
2 -19 6 -19 11 0 11 -49 1 -55 -4 -3 -11 2 -14 11 -3 8 -2 13 2 10 5 -3 9 1 9
8 0 8 -6 12 -14 9 -9 -4 -11 0 -7 13 8 20 6 19 -16 -10 -8 -11 -10 -17 -4 -13
8 4 11 -2 10 -18 0 -14 -4 -25 -8 -25 -5 0 -8 -7 -8 -15 0 -8 5 -15 11 -15 5
0 8 4 4 9 -3 5 -1 12 4 16 6 3 8 13 5 23 -4 13 -3 12 7 -2 8 -14 9 -21 1 -24
-6 -2 -8 -15 -6 -30 2 -15 1 -22 -3 -16 -10 14 -43 9 -54 -8 -5 -7 -6 -22 -2
-33 5 -17 4 -18 -9 -7 -13 10 -18 9 -29 -5 -13 -16 -12 -17 3 -5 14 11 18 10
27 -5 8 -15 12 -16 23 -4 11 12 11 13 0 6 -12 -6 -12 -3 -2 15 9 18 9 21 0 15
-8 -5 -11 -3 -8 5 5 17 36 22 45 8 3 -7 1 -8 -5 -4 -7 4 -12 3 -12 -3 0 -5 3
-11 8 -14 4 -2 1 -2 -5 -1 -7 2 -13 0 -13 -4 0 -5 6 -14 13 -21 9 -11 9 -13 0
-7 -7 4 -13 3 -13 -3 0 -5 6 -12 13 -15 6 -3 3 -4 -9 -1 -29 7 -60 -5 -42 -16
7 -5 18 -9 23 -9 6 0 3 5 -5 10 -8 5 -10 10 -5 10 6 -1 18 -7 28 -14 16 -12
16 -14 2 -20 -10 -4 -14 -13 -11 -24 4 -10 0 -26 -7 -36 -12 -16 -14 -16 -14
-2 0 9 4 16 9 16 4 0 8 5 8 11 0 5 -5 7 -10 4 -13 -8 -8 18 5 27 7 5 6 8 -1 8
-5 0 -19 -7 -30 -15 -19 -15 -19 -15 1 -9 19 5 19 5 2 -9 -17 -14 -17 -15 0
-22 17 -6 16 -8 -5 -25 -13 -11 -18 -21 -12 -25 5 -3 10 -1 10 5 0 6 4 9 10 5
5 -3 7 -12 4 -20 -4 -8 -10 -13 -14 -10 -5 3 -12 0 -16 -6 -4 -7 -3 -9 4 -5 6
3 13 2 17 -4 3 -5 1 -10 -5 -10 -7 0 -5 -6 4 -15 16 -17 11 -49 -7 -38 -6 4
-7 1 -2 -7 6 -10 11 -9 21 5 7 10 11 22 8 26 -3 5 0 9 5 9 13 0 14 -10 2 -29
-6 -9 -4 -23 6 -38 9 -13 13 -26 9 -30 -3 -3 -6 -1 -6 6 0 7 -5 9 -11 5 -8 -4
-4 -13 12 -25 24 -18 24 -18 2 -12 -20 5 -27 14 -25 34 1 3 -11 3 -26 0 -25
-5 -25 -6 -4 -9 12 -2 20 -8 17 -13 -4 -5 -2 -9 4 -9 5 0 8 -8 6 -17 -1 -10 2
-24 8 -31 6 -8 6 -12 -1 -12 -5 0 -13 -8 -16 -17 -6 -15 -4 -15 14 2 15 14 17
21 9 32 -9 10 -8 13 2 13 11 0 11 3 -1 11 -13 9 -13 10 0 6 10 -2 14 -15 13
-36 -1 -18 2 -29 8 -25 5 3 9 2 8 -3 -1 -4 0 -10 1 -13 1 -3 3 -16 4 -30 3
-32 16 -61 25 -56 4 3 7 -4 7 -14 0 -10 -4 -16 -9 -13 -5 3 -6 -4 -3 -15 4
-12 1 -26 -9 -35 -25 -26 -17 -32 10 -7 13 12 22 28 18 34 -3 6 -2 7 2 3 12
-10 15 -38 4 -31 -14 8 -10 -9 6 -30 10 -13 15 -15 15 -6 0 7 3 11 6 8 3 -4 1
-16 -6 -27 -6 -12 -7 -27 -3 -34 11 -18 12 -37 2 -37 -5 0 -9 -4 -9 -10 0 -5
3 -9 8 -9 18 3 32 -2 32 -12 0 -5 -4 -8 -8 -5 -4 2 -8 -6 -8 -20 0 -13 4 -24
8 -24 5 0 8 7 6 16 -2 10 2 19 9 21 8 3 11 -3 8 -16 -3 -14 0 -18 12 -14 12 5
12 8 1 15 -10 8 -9 9 4 5 9 -3 18 -2 20 3 2 4 10 1 18 -8 13 -14 12 -15 -3 -9
-19 7 -22 -1 -6 -23 8 -11 12 -12 16 -2 6 15 45 -31 41 -49 -2 -6 3 -14 11
-17 8 -3 11 0 7 7 -5 7 -1 8 10 4 11 -4 13 -8 6 -11 -7 -2 -9 -9 -6 -14 4 -7
2 -8 -4 -4 -8 5 -10 2 -6 -9 5 -12 9 -13 21 -3 12 10 17 9 25 -5 5 -10 14 -14
20 -11 7 4 8 2 4 -5 -4 -6 -12 -9 -17 -6 -5 4 -9 1 -9 -5 0 -8 10 -10 28 -6
15 3 21 3 14 0 -10 -5 -9 -11 4 -32 14 -22 15 -24 1 -19 -11 4 -14 2 -10 -9 4
-11 9 -12 16 -5 16 16 31 13 17 -4 -10 -12 -8 -14 8 -10 12 2 27 -4 34 -13 11
-14 11 -15 -5 -9 -11 4 -16 3 -12 -4 4 -6 13 -8 21 -5 20 7 45 -4 37 -17 -3
-6 -1 -7 6 -3 15 9 44 -13 37 -29 -5 -14 24 -16 41 -3 16 13 47 -17 40 -36 -4
-9 0 -13 11 -11 9 2 20 4 23 4 4 1 9 11 12 24 6 21 6 21 -14 -3 l-21 -25 7 29
c5 23 3 27 -10 22 -9 -3 -18 1 -22 9 -4 12 -9 13 -19 4 -9 -7 -14 -8 -14 -1 0
18 29 21 39 4 8 -12 10 -13 11 -3 0 12 3 11 18 -1 9 -9 23 -13 30 -11 9 4 11
-4 8 -29 -3 -18 -3 -27 0 -20 3 6 10 10 14 7 5 -3 7 7 5 22 -4 27 -4 27 7 6 6
-13 17 -23 24 -23 7 0 22 -12 33 -26 12 -15 21 -21 21 -15 0 8 9 6 28 -5 18
-11 21 -11 10 -2 -10 8 -15 18 -11 21 3 4 12 2 19 -4 8 -7 14 -6 20 2 5 8 3 9
-6 4 -8 -5 -11 -4 -6 3 3 6 -1 9 -11 7 -10 -1 -24 2 -30 8 -9 7 -13 5 -13 -7
0 -10 -5 -14 -10 -11 -6 4 -7 11 -4 17 4 7 2 8 -4 4 -8 -5 -10 -1 -5 9 4 12 8
13 13 5 6 -9 9 -9 13 1 5 12 6 12 6 0 1 -11 4 -11 17 -1 8 8 14 9 13 4 -4 -21
2 -26 17 -14 12 11 15 11 12 1 -2 -7 7 -15 20 -17 13 -2 21 0 18 4 -2 4 4 9
15 9 21 2 26 -12 7 -23 -7 -5 -8 -3 -3 7 8 12 6 12 -8 1 -9 -8 -20 -11 -25 -9
-4 3 -13 -3 -20 -14 -7 -11 -8 -19 -2 -19 5 0 10 4 10 9 0 5 9 11 19 14 21 5
56 -24 44 -37 -4 -4 1 -4 11 0 15 6 17 4 11 -6 -6 -9 -4 -11 5 -5 10 6 7 12
-9 24 -12 9 -19 20 -15 24 12 12 26 8 18 -5 -4 -7 -4 -10 1 -6 4 4 14 0 22
-10 10 -13 12 -13 8 -2 -4 11 1 15 18 15 13 -1 27 -4 33 -8 5 -3 16 -2 24 3
12 7 11 13 -5 31 -11 12 -14 19 -6 14 11 -6 13 -4 8 11 -6 17 -6 17 5 3 7 -9
21 -15 31 -13 11 1 16 0 13 -3 -3 -4 3 -13 15 -21 23 -16 39 -8 19 11 -10 10
-11 9 -5 -3 5 -8 4 -11 0 -7 -14 13 -14 34 1 34 7 0 11 -4 8 -9 -3 -4 4 -8 15
-8 12 0 20 -3 20 -7 -1 -5 -1 -15 0 -23 1 -13 3 -13 10 -1 5 8 7 25 5 38 -2
12 0 23 6 23 6 0 8 -4 5 -10 -3 -6 2 -10 12 -10 15 0 16 -2 3 -11 -12 -9 -11
-10 5 -4 11 4 27 8 34 9 8 2 17 8 19 14 2 7 9 9 14 6 7 -5 8 -2 3 6 -6 10 -11
9 -22 -5 -9 -14 -13 -15 -13 -4 0 12 -2 12 -10 -1 -8 -13 -11 -12 -24 5 -8 11
-12 22 -10 25 3 2 9 -2 14 -10 6 -10 12 -11 22 -3 17 13 42 9 76 -13 24 -15
25 -15 13 -1 -11 14 -11 18 2 23 9 3 21 3 26 -1 7 -3 8 0 5 10 -6 14 -9 14
-31 -1 -30 -19 -53 -5 -26 17 16 13 17 12 4 -3 -7 -10 -10 -18 -5 -18 15 1 44
27 37 33 -3 4 4 4 17 2 17 -3 20 -1 16 12 -5 13 -4 14 8 4 11 -10 17 -7 30 11
9 12 16 19 16 14 0 -5 8 -2 18 7 15 13 21 14 32 4 10 -10 12 -9 7 6 -5 12 -3
16 5 11 7 -5 9 -2 5 9 -4 12 -2 14 11 10 15 -6 16 -5 2 13 -14 17 -14 18 1 6
14 -10 19 -9 32 11 9 15 26 23 48 25 35 3 59 18 58 36 0 7 -2 6 -6 -2 -2 -6
-10 -9 -15 -6 -6 4 -8 2 -4 -4 3 -6 -1 -9 -11 -8 -9 2 -19 9 -21 17 -3 11 -1
11 7 -1 10 -14 16 -7 12 13 -1 5 3 6 9 2 19 -11 32 6 18 23 -11 15 -11 15 3 4
13 -10 19 -9 30 5 12 15 12 16 -6 10 l-20 -7 20 16 c11 8 19 23 17 32 -2 14
-1 15 7 2 5 -8 6 -19 2 -25 -5 -5 -7 -18 -6 -28 2 -9 -1 -15 -6 -12 -5 4 -6
-1 -3 -9 5 -12 9 -11 25 5 20 20 26 34 9 24 -5 -3 -8 7 -7 23 1 18 7 28 14 25
6 -3 10 -10 7 -18 -3 -7 2 -15 11 -19 9 -3 13 -10 10 -16 -10 -16 1 -11 16 7
8 9 9 14 3 10 -7 -4 -18 1 -25 10 -12 15 -12 16 5 10 15 -6 17 -5 8 6 -16 19
5 39 29 27 13 -7 17 -6 15 5 -1 8 -6 18 -11 22 -4 4 -5 2 -1 -4 4 -7 3 -13 -3
-13 -15 0 -21 15 -10 30 5 8 9 11 9 7 0 -4 8 -3 18 2 19 10 28 51 11 51 -6 0
-8 -4 -5 -8 3 -5 -3 -8 -12 -7 -9 0 -17 5 -17 10 0 6 6 9 13 7 8 -2 11 1 8 7
-6 10 25 33 41 30 19 -3 25 2 14 14 -8 11 -6 18 9 32 14 13 20 14 20 5 0 -7 3
-10 7 -7 3 4 -2 16 -12 27 -18 20 -8 29 11 10 7 -7 17 -3 30 12 l19 23 -23
-19 c-12 -11 -22 -17 -23 -15 0 2 -2 13 -4 23 -2 10 4 30 13 44 16 25 16 25
-6 13 -12 -7 -20 -16 -17 -21 3 -5 -4 -8 -15 -7 l-21 1 21 16 c15 12 18 18 9
27 -9 9 -5 11 15 9 15 -2 24 -1 21 2 -2 3 1 12 8 20 9 13 9 14 0 8 -7 -4 -13
-2 -13 3 0 6 7 11 15 11 8 0 15 5 15 11 0 5 -4 7 -10 4 -5 -3 -17 -2 -26 3
-11 6 -13 11 -5 16 6 4 11 2 11 -3 0 -7 7 -7 20 1 11 7 20 16 20 21 0 4 -6 5
-12 0 -12 -7 -58 -12 -58 -6 0 1 10 7 21 14 17 9 20 8 13 -3 -6 -11 -5 -11 9
1 18 15 23 26 7 16 -6 -3 -13 1 -16 9 -3 9 -11 13 -18 9 -8 -5 -8 -3 0 8 14
19 11 45 -4 41 -9 -1 -9 3 0 18 7 11 16 20 20 20 8 0 5 21 -6 39 -6 10 -5 12
2 7 7 -4 13 -1 14 6 0 7 2 18 2 23 1 6 5 16 10 23 4 7 5 16 2 19 -3 4 -6 1 -6
-4 0 -13 -23 -12 -30 1 -3 5 3 10 13 12 22 3 36 14 18 14 -7 0 -9 5 -5 11 3 6
-6 3 -22 -7 l-29 -18 30 34 c17 18 24 30 18 26 -7 -4 -13 -2 -13 3 0 6 -5 11
-11 11 -8 0 -7 -6 2 -17 8 -9 9 -14 2 -10 -6 4 -13 4 -16 0 -2 -5 -2 -2 -1 5
2 6 -2 12 -9 12 -8 0 -8 3 2 9 11 7 11 10 0 15 -8 3 -3 3 11 0 17 -4 21 -2 12
4 -17 12 -17 23 0 33 9 6 6 8 -9 6 -17 -1 -19 -4 -11 -14 7 -9 7 -13 -1 -13
-12 0 -12 0 -16 45 -1 17 -3 33 -4 38 -2 11 -31 8 -31 -3 0 -5 5 -9 11 -7 15
3 20 -31 7 -40 -6 -3 -8 -1 -5 4 4 6 -3 19 -14 29 -26 23 -25 23 -43 -1 -14
-19 -15 -19 -12 8 2 17 -1 26 -8 24 -6 -2 -10 -11 -10 -20 1 -9 -2 -15 -6 -12
-5 3 -11 -4 -15 -15 -4 -11 -11 -18 -16 -15 -5 4 -10 1 -10 -4 -1 -6 -2 -15
-3 -21 -3 -22 -21 -13 -39 20 -10 19 -12 27 -4 18 8 -10 17 -15 21 -11 4 4 4
-1 0 -12 -4 -13 4 -8 25 14 29 32 42 59 22 47 -4 -3 -16 1 -26 8 -14 10 -15
15 -5 21 8 5 11 4 7 -2 -4 -6 0 -13 8 -17 8 -3 17 -1 20 4 4 6 0 10 -7 10 -9
1 -7 5 4 14 10 7 15 16 11 19 -3 4 -11 2 -18 -3 -8 -7 -12 -5 -12 4 0 8 7 13
16 11 9 -1 21 2 28 7 12 10 13 -8 0 -28 -9 -15 1 -24 19 -17 9 3 12 -1 9 -15
-4 -22 9 -23 40 -3 14 8 15 11 3 7 -17 -5 -42 16 -32 27 10 10 13 57 4 57 -5
0 -10 -6 -13 -12 -3 -10 -7 -10 -20 1 -11 9 -17 10 -17 2 0 -6 -5 -11 -12 -11
-6 0 -3 9 7 20 10 11 15 20 10 20 -4 0 -2 6 4 14 8 10 9 16 1 21 -6 3 -8 10
-5 15 3 5 -3 18 -15 30 -11 11 -15 20 -8 20 6 0 8 3 5 7 -4 3 -1 13 6 21 9 13
9 14 0 8 -7 -4 -13 -2 -13 3 0 6 -5 11 -11 11 -8 0 -8 -4 0 -14 9 -10 7 -17
-6 -27 -16 -13 -17 -12 -4 3 11 15 11 19 -3 24 -13 5 -14 9 -5 20 6 8 15 12
18 9 4 -2 8 2 8 10 0 13 -3 13 -17 0 -28 -25 -47 -17 -41 18 0 4 -4 7 -10 7
-5 0 -8 4 -5 8 3 5 -2 9 -10 9 -10 0 -11 -4 -4 -11 15 -15 12 -30 -3 -17 -10
8 -17 7 -25 -1 -15 -15 -15 -7 -2 27 7 17 7 24 0 20 -6 -3 -10 -13 -10 -21 0
-8 -4 -12 -10 -9 -6 4 -7 -1 -3 -12 6 -16 5 -17 -11 -4 -16 13 -16 16 -2 26
12 9 13 14 3 25 -10 10 -8 12 8 6 11 -4 16 -3 11 1 -13 13 -53 10 -53 -4 0 -8
6 -12 14 -9 18 7 17 -9 -2 -24 -8 -7 -12 -16 -9 -21 3 -5 1 -9 -5 -9 -5 0 -12
5 -14 10 -3 6 -4 5 -3 -2 2 -7 10 -12 19 -12 9 1 15 -2 12 -6 -3 -5 3 -7 12
-5 10 2 18 4 18 5 0 1 16 3 36 4 20 1 36 -2 36 -9 0 -12 -36 -13 -55 -1 -15 9
-16 -5 -2 -22 7 -9 7 -9 -2 -2 -21 17 -29 11 -18 -12 10 -21 10 -22 -4 -5 -14
18 -15 17 -21 -3 -6 -20 -8 -20 -19 -4 -9 12 -15 14 -20 6 -4 -7 -2 -12 3 -12
6 0 11 -8 11 -17 -1 -17 -1 -17 -11 0 -12 21 -26 22 -26 2 0 -8 4 -15 9 -15 4
0 8 -5 8 -11 0 -8 -4 -8 -12 -2 -21 17 -50 12 -43 -6 12 -30 10 -36 -9 -33
-12 2 -16 -1 -11 -10 3 -7 0 -5 -8 5 -8 9 -20 17 -26 17 -7 0 -9 5 -5 11 4 8
9 8 17 0 14 -14 37 -14 37 0 0 6 -6 9 -14 6 -7 -3 -19 0 -25 6 -9 9 -14 8 -21
-3 -6 -10 -3 -20 11 -33 11 -10 17 -23 13 -28 -3 -5 -1 -16 6 -24 8 -10 8 -15
-1 -21 -7 -4 -9 -3 -6 3 4 6 1 15 -6 21 -9 7 -17 3 -30 -14 -10 -13 -13 -24
-7 -24 5 0 10 -8 10 -17 0 -15 -2 -14 -15 3 -14 19 -14 19 -16 -1 -1 -11 -1
-24 0 -28 1 -5 -3 -5 -9 -2 -6 4 -9 14 -6 22 4 9 1 12 -7 8 -6 -4 -4 0 5 8 10
8 14 18 10 22 -4 5 -1 5 7 0 9 -5 12 -4 7 3 -3 6 -1 14 5 17 5 4 8 13 5 21 -3
7 0 16 6 20 7 5 8 2 3 -6 -6 -9 -4 -11 5 -5 9 5 11 4 6 -3 -5 -8 -1 -10 10 -5
16 6 16 7 -1 19 -20 15 -45 8 -45 -14 0 -13 -3 -12 -20 3 -11 10 -20 14 -20 9
0 -5 9 -15 20 -22 12 -7 18 -17 15 -22 -9 -15 -27 -12 -20 3 4 6 -5 0 -18 -15
-14 -15 -29 -24 -33 -20 -5 4 -2 -1 5 -10 11 -15 11 -19 -3 -24 -10 -4 -15
-13 -11 -21 3 -10 1 -13 -8 -10 -10 4 -13 -1 -9 -18 2 -13 -1 -31 -7 -42 -9
-15 -10 -12 -6 16 5 30 4 32 -10 18 -9 -9 -12 -23 -8 -33 4 -10 2 -15 -3 -11
-16 9 -35 -8 -28 -26 3 -9 11 -17 16 -17 7 0 7 5 0 13 -8 10 -6 13 9 14 10 1
19 -3 19 -8 0 -6 6 -7 13 -3 7 4 9 3 4 -2 -5 -5 -12 -9 -15 -9 -17 -1 -32 -18
-25 -29 4 -7 0 -3 -9 7 -10 11 -18 18 -19 16 -8 -42 -8 -49 3 -43 7 4 8 3 4
-4 -4 -6 -13 -9 -21 -6 -9 4 -18 -3 -24 -17 -8 -19 -10 -20 -10 -6 -1 10 -6
15 -11 12 -6 -4 -8 -10 -6 -14 3 -4 1 -13 -5 -21 -5 -10 -9 -11 -9 -3 0 7 -7
10 -15 7 -8 -4 -15 -1 -15 4 0 6 9 9 19 7 21 -4 23 17 3 37 -10 10 -14 8 -19
-11 -4 -17 -8 -20 -15 -9 -6 8 -7 5 -2 -12 6 -23 6 -24 -11 -10 -15 12 -17 12
-10 1 6 -11 4 -13 -8 -8 -9 3 -16 3 -16 -1 3 -20 -2 -25 -12 -12 -8 12 -9 10
-4 -8 6 -22 5 -23 -15 -12 -12 6 -24 9 -27 7 -2 -3 5 -8 16 -12 12 -3 21 -11
21 -16 0 -13 -14 -11 -29 4 -8 6 -6 0 4 -15 9 -16 19 -28 22 -28 2 0 1 5 -2
10 -4 6 -1 9 7 8 8 -2 12 5 10 17 -3 20 -3 20 11 1 8 -11 12 -29 9 -40 -5 -18
-7 -19 -10 -3 -2 9 -8 15 -13 12 -5 -4 -5 -14 1 -25 7 -13 7 -21 0 -25 -6 -4
-10 -3 -9 2 3 19 -2 34 -10 29 -5 -3 -8 -14 -6 -24 1 -9 0 -11 -3 -3 -3 11 -9
9 -24 -10 -13 -15 -18 -18 -14 -7 3 10 1 20 -4 23 -6 4 -10 3 -11 -2 -4 -47
-16 -64 -30 -43 -8 13 -12 12 -28 -7 -15 -18 -20 -20 -25 -8 -3 9 -12 12 -23
9 -15 -5 -16 -4 -3 5 8 6 16 15 16 21 1 5 2 15 3 22 0 7 8 3 17 -8 8 -10 12
-13 8 -5 -5 10 -3 12 6 6 9 -6 11 -4 5 5 -5 9 -4 11 4 6 6 -4 9 -11 6 -16 -3
-4 2 -11 11 -14 23 -9 25 -4 9 18 -15 20 -50 27 -77 14 -9 -4 -19 -4 -22 1 -3
5 3 11 14 14 21 5 28 27 9 27 -5 0 -8 -3 -5 -8 2 -4 -7 -12 -20 -19 -22 -10
-24 -9 -20 10 2 12 1 16 -1 10 -3 -7 -9 -13 -14 -13 -6 0 -7 5 -3 12 4 7 3 8
-5 4 -6 -4 -9 -10 -7 -14 2 -4 -2 -16 -9 -26 -13 -17 -14 -17 -11 7 1 14 8 32
14 39 12 15 4 32 -18 36 -11 2 -9 -2 4 -13 17 -13 17 -15 3 -20 -8 -4 -18 -13
-21 -21 -4 -10 -2 -12 6 -8 7 4 8 3 4 -4 -4 -7 -11 -12 -17 -12 -10 0 -7 28 5
49 6 10 5 12 -2 7 -7 -4 -12 -3 -12 2 0 5 -12 14 -26 20 -15 7 -22 17 -18 24
4 7 3 8 -4 4 -9 -5 -7 -14 4 -32 9 -13 12 -24 8 -24 -5 -1 2 -7 15 -14 l23
-13 -22 -6 c-12 -3 -19 -3 -16 0 11 11 -15 32 -32 26 -16 -5 -16 -5 0 8 16 13
16 15 -1 36 -16 19 -20 20 -25 7 -4 -10 -2 -13 6 -8 7 4 8 3 4 -5 -10 -15 -29
-3 -22 15 4 10 0 11 -17 5 -15 -6 -25 -4 -34 8 -12 14 -12 14 -6 -4 3 -11 2
-17 -2 -13 -5 5 -15 -1 -23 -13 -14 -20 -15 -20 -35 -2 -18 15 -20 15 -8 1 7
-9 10 -22 7 -27 -4 -5 -1 -13 5 -17 8 -5 9 -3 4 7 -5 8 -5 11 0 7 4 -4 14 0
21 10 8 9 14 12 14 5 0 -6 -5 -15 -10 -18 -6 -4 -7 -11 -4 -17 4 -6 3 -8 -3
-5 -18 11 -45 -35 -45 -78 0 -39 2 -46 14 -39 7 5 8 3 4 -5 -5 -7 -11 -10 -14
-7 -3 3 -11 1 -19 -5 -13 -12 -19 2 -6 15 11 11 12 37 1 30 -5 -3 -3 8 6 24
10 19 12 33 6 37 -16 10 -12 28 4 22 10 -4 13 -1 9 9 -4 11 -9 12 -16 5 -16
-16 -27 -13 -27 7 0 14 -2 15 -9 2 -7 -10 -4 -18 10 -28 10 -7 19 -23 19 -35
0 -16 -3 -18 -9 -8 -6 9 -11 10 -15 2 -4 -6 -2 -11 3 -11 6 0 11 -5 11 -11 0
-6 -7 -9 -15 -5 -9 3 -23 -6 -37 -24 -12 -17 -26 -30 -31 -30 -8 0 0 12 55 85
12 16 18 26 11 22 -6 -4 -14 0 -17 8 -4 12 -10 13 -25 5 -21 -11 -54 -3 -45
11 3 5 -3 6 -13 3 -13 -4 -12 0 6 15 21 19 22 25 13 46 -9 19 -8 27 4 40 9 8
11 15 5 15 -18 0 -30 -34 -19 -54 8 -14 6 -22 -7 -35 -17 -15 -17 -15 -11 2 3
10 2 27 -4 37 -7 13 -4 24 15 44 23 25 21 38 -3 14 -22 -22 -13 5 10 29 20 22
15 29 -16 24 -5 -1 -5 6 -1 16 13 30 13 74 1 70 -7 -3 -12 3 -12 13 0 10 5 18
11 17 5 -1 9 7 8 18 -1 11 0 14 3 8 3 -7 10 -13 15 -13 6 0 7 5 4 11 -4 5 -1
18 7 27 17 20 22 66 6 56 -7 -4 -8 -2 -4 4 4 6 14 8 24 5 15 -6 16 -5 2 13
-11 15 -11 16 0 7 8 -7 22 -13 32 -13 9 0 22 -8 27 -17 6 -11 11 -13 11 -5 0
8 5 10 13 6 6 -4 9 -4 5 1 -4 4 -3 16 3 27 10 19 11 19 32 1 18 -15 18 -13 -2
10 -25 28 -33 33 -29 20 4 -15 -23 -53 -34 -47 -7 4 -7 9 1 13 6 4 13 17 16
29 3 19 1 21 -16 12 -10 -6 -19 -16 -19 -22 0 -6 7 -5 18 3 15 13 16 12 4 -3
-13 -17 -36 -18 -49 -3 -4 4 -2 5 5 1 11 -7 17 5 13 27 -1 5 4 5 10 1 8 -4 9
1 4 17 -4 17 -4 20 4 10 5 -8 19 -16 32 -18 12 -2 29 -9 38 -16 12 -10 13 -9
6 2 -6 10 -4 13 6 9 10 -4 15 1 16 13 2 18 0 18 -14 3 -12 -11 -18 -12 -23 -4
-4 6 -10 11 -14 11 -16 -2 -18 0 -6 14 7 8 17 12 23 8 6 -4 8 0 4 10 -6 16 15
41 26 30 6 -6 11 11 8 30 0 4 4 7 10 7 7 0 8 -7 4 -17 -12 -31 -17 -70 -6 -54
8 12 10 12 13 0 3 -8 3 -2 1 13 -6 36 2 47 27 41 11 -3 17 -9 14 -15 -3 -5
-11 -5 -19 2 -10 9 -13 7 -11 -7 3 -18 8 -18 35 -3 10 5 11 12 3 26 -6 10 -13
18 -16 17 -13 -6 -26 -2 -26 8 0 5 4 8 9 4 5 -3 13 0 16 6 4 5 13 8 21 5 14
-5 29 9 17 17 -5 2 -3 2 4 1 6 -2 14 2 17 9 3 9 5 9 5 0 1 -7 5 -13 11 -13 5
0 7 8 4 18 -5 14 -4 15 5 2 8 -12 5 -19 -11 -32 -13 -9 -25 -15 -29 -12 -4 2
-9 -3 -13 -11 -3 -8 0 -17 6 -21 7 -4 8 -3 4 4 -7 11 7 17 29 12 5 -1 7 2 3 6
-4 4 0 13 10 20 26 20 37 16 17 -6 -10 -11 -15 -23 -12 -27 4 -3 7 -1 7 5 0 7
18 24 41 39 33 22 42 24 49 13 5 -8 7 -17 4 -21 -2 -4 4 -13 14 -20 15 -12 16
-12 6 1 -6 8 -10 22 -9 31 2 10 -7 21 -21 28 -23 10 -25 41 -2 41 5 0 7 -4 4
-9 -3 -5 6 -17 20 -26 15 -9 23 -12 20 -6 -4 6 -2 11 3 11 6 0 11 4 11 8 0 5
-7 9 -15 9 -8 0 -11 -5 -8 -11 4 -6 2 -7 -3 -3 -5 5 -9 12 -9 15 0 4 -4 14
-10 22 -8 13 -7 13 8 1 15 -12 17 -11 17 5 0 12 6 7 19 -16 13 -25 15 -37 7
-42 -7 -5 -7 -8 0 -8 16 0 55 40 49 51 -10 15 -28 10 -22 -6 4 -8 2 -17 -2
-20 -5 -3 -11 2 -14 9 -7 18 18 40 33 31 6 -4 18 1 26 11 12 17 13 17 8 2 -3
-10 -1 -18 5 -18 6 0 11 5 11 10 0 6 7 10 15 10 8 0 15 -7 15 -15 0 -8 -5 -15
-11 -15 -5 0 -7 5 -3 12 4 7 3 8 -5 4 -6 -4 -9 -12 -6 -17 9 -13 -9 -11 -22 2
-9 9 -11 7 -9 -7 2 -11 -4 -24 -11 -30 -13 -8 -12 -12 4 -25 16 -12 17 -12 6
2 -10 13 -7 18 19 34 22 13 33 15 36 7 2 -7 9 -9 15 -5 7 4 8 0 4 -11 -4 -11
-3 -15 4 -11 6 4 8 14 5 22 -4 10 -2 13 8 10 11 -4 13 -1 9 11 -6 15 -5 15 10
3 9 -7 14 -18 10 -24 -3 -5 -1 -7 5 -3 5 3 12 3 15 -1 2 -5 2 -2 0 6 -2 8 2
11 11 8 11 -4 13 -1 9 11 -6 15 -5 15 10 3 9 -7 14 -17 11 -22 -3 -5 0 -9 6
-9 6 0 8 -6 5 -12 -4 -7 2 -3 13 9 11 12 23 19 27 15 5 -4 5 -1 1 6 -9 14 -9
14 31 3 27 -8 31 -7 26 7 -4 15 -3 15 6 2 16 -23 14 -28 -20 -46 -23 -11 -34
-13 -42 -5 -8 8 -5 11 10 11 12 0 24 4 27 9 3 4 -6 6 -19 3 -31 -6 -39 -16
-22 -31 15 -12 77 6 77 22 0 4 5 5 12 1 7 -5 8 -3 3 6 -5 9 -4 11 3 6 7 -4 12
-3 12 2 0 6 -7 12 -15 16 -8 3 -15 11 -14 18 0 10 2 10 6 0 2 -6 8 -10 13 -7
5 3 11 -4 15 -14 3 -11 12 -18 19 -15 7 3 20 -2 29 -10 22 -22 30 -20 17 4 -7
14 -7 20 0 20 5 0 10 -7 10 -16 0 -9 5 -12 13 -8 7 5 6 1 -2 -10 -13 -16 -13
-17 5 -14 15 2 19 -3 19 -26 0 -16 -6 -31 -13 -34 -8 -2 -10 3 -6 15 5 14 4
15 -4 3 -12 -16 -6 -31 11 -29 26 3 37 -2 37 -17 0 -10 6 -14 15 -11 8 4 17 2
20 -2 7 -12 -21 -22 -42 -15 -10 2 -8 -1 5 -7 28 -15 28 -24 0 -43 -12 -9 -19
-18 -17 -21 9 -9 51 37 45 50 -3 8 4 12 19 11 13 0 21 -4 19 -7 -1 -3 3 -6 10
-6 15 0 14 24 -1 51 -9 16 -11 17 -16 1 -7 -16 -27 -12 -27 6 0 6 4 8 9 4 5
-3 13 -1 16 5 4 6 1 9 -6 8 -7 -2 -14 3 -15 10 -3 26 -6 26 -14 5 -5 -13 -15
-20 -23 -17 -15 5 -19 34 -6 34 5 0 4 11 -1 25 -5 14 -7 25 -5 25 3 0 10 -12
15 -26 6 -14 14 -23 19 -20 5 4 16 0 24 -8 8 -8 17 -13 20 -10 3 3 15 0 28 -6
20 -11 21 -10 15 6 -6 18 -5 18 8 2 18 -24 26 -23 27 5 1 17 2 18 6 4 2 -9 9
-15 14 -12 5 4 5 14 -2 26 -6 12 -8 23 -5 27 3 3 6 -1 6 -9 0 -11 2 -11 10 1
7 11 10 11 10 2 0 -7 5 -10 10 -7 7 4 7 11 2 18 -10 12 -9 30 3 60 5 11 2 17
-8 17 -10 0 -13 9 -11 33 3 23 1 28 -6 17 -8 -13 -13 -9 -12 10 0 3 -11 5 -24
5 -22 0 -23 -1 -7 -12 9 -7 20 -13 23 -13 3 0 6 -9 7 -20 1 -11 -2 -18 -8 -15
-5 4 -9 13 -9 22 0 9 -6 13 -15 9 -8 -3 -14 -2 -13 2 2 13 -14 42 -24 42 -5 0
-6 -4 -3 -10 3 -5 2 -10 -3 -10 -6 0 -9 18 -7 40 1 24 -3 44 -11 51 -8 6 -11
16 -7 22 3 6 1 7 -6 3 -6 -4 -9 -11 -6 -16 3 -4 -1 -11 -7 -14 -7 -3 -5 -4 6
-3 11 1 20 -5 21 -15 4 -23 -11 -32 -19 -12 -5 14 -9 14 -22 3 -22 -18 -49
-22 -35 -5 6 7 7 17 3 22 -4 4 1 2 11 -5 11 -9 17 -10 17 -2 0 6 -5 11 -12 11
-6 0 -4 7 5 18 16 18 16 19 -3 17 -11 -1 -23 -5 -27 -10 -5 -4 -2 -5 6 0 9 5
12 3 9 -5 -2 -8 -13 -14 -24 -15 -10 -2 -28 -6 -39 -10 -14 -5 -16 -4 -6 3 7
5 9 12 5 14 -5 3 -4 4 2 2 6 -1 17 2 25 8 11 8 11 9 -3 5 -22 -7 -42 15 -27
30 8 8 7 13 -2 18 -8 5 -10 4 -5 -3 4 -7 2 -12 -4 -12 -7 0 -10 -7 -6 -15 3
-8 2 -25 -3 -37 l-8 -22 -5 22 c-4 15 -2 20 5 15 7 -4 6 0 -1 9 -8 9 -20 14
-27 11 -10 -3 -13 1 -11 14 4 21 -17 25 -43 8 -11 -6 -13 -4 -8 11 5 14 2 12
-12 -6 -11 -14 -17 -27 -15 -30 3 -2 10 2 15 10 9 13 10 13 6 0 -4 -17 -26
-21 -28 -5 -1 6 -6 19 -12 30 -6 11 -10 27 -9 35 3 13 2 13 -7 0 -7 -9 -7 -18
-1 -24 16 -16 12 -26 -10 -26 -11 0 -18 -6 -16 -12 1 -7 1 -10 -1 -5 -3 4 -10
4 -15 1 -6 -4 -8 -2 -4 4 3 6 2 14 -4 17 -8 5 -8 11 0 20 8 10 8 15 0 20 -6 4
-14 4 -17 1 -4 -3 -1 -6 7 -6 9 0 10 -3 1 -14 -6 -7 -9 -22 -5 -32 5 -16 4
-16 -5 -4 -9 13 -11 13 -11 0 0 -12 -2 -13 -9 -1 -6 9 -10 10 -14 2 -3 -7 -4
-7 -2 1 1 7 7 12 12 11 5 -1 9 10 10 25 0 15 -1 19 -4 10 -2 -9 -13 -20 -24
-23 -11 -4 -16 -11 -13 -17 5 -7 2 -8 -6 -3 -7 4 -16 2 -21 -6 -6 -9 -12 -10
-16 -4 -13 17 -35 16 -50 -2 -13 -16 -13 -16 -3 5 8 17 17 21 38 17 29 -5 72
18 72 38 0 6 -5 4 -11 -5 -5 -10 -17 -18 -25 -18 -8 0 -12 5 -9 10 3 6 1 10
-5 10 -7 0 -10 -6 -7 -14 3 -8 0 -13 -6 -12 -22 3 -38 18 -34 30 3 6 -4 12
-14 12 -17 0 -17 -2 -2 -18z m330 -58 c1 -11 -4 -20 -12 -20 -14 0 -28 27 -20
40 9 15 31 1 32 -20z m-97 -1 c-7 -11 -14 -18 -17 -15 -3 3 0 12 7 21 18 21
23 19 10 -6z m120 -19 c-6 -11 -13 -20 -16 -20 -2 0 0 9 6 20 6 11 13 20 16
20 2 0 0 -9 -6 -20z m100 -28 c0 -5 -7 -9 -15 -9 -8 0 -12 4 -9 9 3 4 9 8 15
8 5 0 9 -4 9 -8z m83 -36 c8 5 7 2 -1 -7 -11 -12 -14 -12 -22 1 -8 12 -10 13
-10 1 0 -8 -2 -12 -5 -9 -3 3 -2 13 1 23 6 16 8 16 16 1 5 -9 15 -13 21 -10z
m-323 -88 c0 -4 -6 -8 -14 -8 -8 0 -17 4 -20 8 -2 4 4 8 15 8 10 0 19 -4 19
-8z m-95 -10 c3 3 10 0 15 -8 7 -10 10 -11 10 -2 0 6 7 12 15 12 8 0 15 -4 15
-8 0 -4 11 -8 25 -8 14 0 25 4 25 10 0 5 3 7 6 3 4 -3 -2 -17 -13 -30 l-18
-24 -19 24 c-17 22 -19 23 -36 8 -15 -14 -18 -14 -30 0 -12 14 -15 14 -30 0
-23 -21 -33 -19 -21 4 6 10 7 21 3 25 -3 4 5 3 20 -3 14 -5 29 -7 33 -3z m132
-20 c-3 -8 -6 -5 -6 6 -1 11 2 17 5 13 3 -3 4 -12 1 -19z m118 -8 c3 -5 1 -10
-4 -10 -6 0 -11 5 -11 10 0 6 2 10 4 10 3 0 8 -4 11 -10z m-530 -36 c14 -6 13
-8 -5 -21 -17 -12 -24 -13 -33 -4 -9 9 -8 14 3 21 18 12 15 11 35 4z m-413
-38 c7 4 8 2 4 -4 -4 -6 -13 -9 -21 -6 -8 4 -12 11 -8 17 5 8 8 7 11 -1 2 -7
9 -9 14 -6z m1269 -13 c13 -16 12 -17 -3 -4 -10 7 -18 15 -18 17 0 8 8 3 21
-13z m-198 -48 c-3 -9 -8 -14 -10 -11 -3 3 -2 9 2 15 9 16 15 13 8 -4z m46
-36 c-22 -14 -33 -10 -19 6 7 8 17 12 22 9 6 -4 5 -10 -3 -15z m-978 -12 c-10
-9 -11 -8 -5 6 3 10 9 15 12 12 3 -3 0 -11 -7 -18z m-276 -97 c-3 -5 -12 -10
-18 -10 -7 0 -6 4 3 10 19 12 23 12 15 0z m1155 -55 c-7 -8 -9 -19 -5 -25 3
-5 -1 -10 -9 -10 -9 0 -16 -4 -16 -9 0 -6 9 -8 20 -6 11 2 20 -1 20 -6 0 -5
-7 -9 -16 -7 -11 2 -26 -13 -42 -42 -13 -25 -21 -34 -18 -20 4 14 8 31 10 38
1 8 9 18 17 23 12 7 12 9 0 9 -11 0 -10 5 4 20 10 11 15 20 11 20 -4 0 -2 9 4
20 6 11 15 18 21 14 6 -4 6 -11 -1 -19z m474 2 c-3 -8 -13 -18 -21 -21 -13 -5
-14 -4 -3 9 7 8 9 15 4 15 -5 0 -2 4 6 10 18 11 22 8 14 -13z m-1464 -7 c0 -5
-5 -10 -11 -10 -5 0 -7 5 -4 10 3 6 8 10 11 10 2 0 4 -4 4 -10z m1360 -61 c0
-5 -4 -9 -8 -9 -5 0 -9 7 -9 15 0 8 4 12 9 9 4 -3 8 -9 8 -15z m20 -19 c-8 -5
-19 -10 -25 -10 -5 0 -3 5 5 10 8 5 20 10 25 10 6 0 3 -5 -5 -10z m-400 -14
c0 -3 -4 -8 -10 -11 -5 -3 -10 -1 -10 4 0 6 5 11 10 11 6 0 10 -2 10 -4z
m-1025 -35 c-6 -5 -25 10 -25 20 0 5 6 4 14 -3 8 -7 12 -15 11 -17z m7 -15 c8
5 7 -1 -3 -17 -14 -20 -14 -26 -3 -37 11 -10 14 -10 14 -1 0 7 3 9 7 6 3 -4
-4 -18 -16 -31 -17 -18 -19 -25 -9 -29 10 -3 10 -7 1 -17 -9 -10 -9 -18 -1
-33 7 -14 7 -22 -2 -27 -9 -5 -9 -9 -1 -14 6 -4 9 -12 6 -17 -4 -5 5 -14 19
-21 26 -11 35 -28 16 -28 -5 0 -10 6 -10 13 0 7 -3 8 -8 2 -10 -14 -32 -17
-32 -5 0 6 5 10 12 10 6 0 9 2 6 5 -3 3 -13 3 -22 -1 -15 -6 -13 -11 11 -42
14 -19 22 -32 16 -29 -7 4 -10 0 -9 -10 2 -10 -2 -22 -8 -26 -7 -6 -6 -7 4 -4
8 2 14 10 13 16 -2 6 1 11 6 11 5 0 9 -13 9 -30 -1 -23 -4 -27 -14 -19 -9 7
-14 6 -20 -2 -5 -8 -3 -10 7 -4 8 5 11 5 7 0 -4 -4 1 -20 12 -35 11 -15 16
-31 12 -35 -4 -5 -1 -5 6 -1 6 4 12 2 12 -3 0 -6 -5 -11 -11 -11 -8 0 -9 -4 0
-13 6 -8 7 -18 3 -22 -4 -5 -1 -5 5 -1 9 5 11 2 6 -10 -4 -12 -3 -15 5 -10 8
4 10 2 6 -7 -7 -19 12 -32 22 -16 4 8 3 9 -4 5 -7 -4 -12 -2 -12 3 0 6 2 11 4
11 2 0 10 2 18 5 8 3 13 -3 14 -20 1 -14 -1 -23 -5 -21 -11 7 -36 -12 -27 -21
5 -4 11 -2 13 5 3 6 9 9 15 6 6 -4 5 -10 -3 -15 -10 -6 -10 -9 -2 -9 7 0 10
-7 7 -15 -4 -9 1 -18 11 -21 12 -5 13 -9 5 -14 -9 -5 -9 -9 -1 -14 6 -4 11 -2
11 3 0 8 7 7 20 -1 14 -9 16 -14 7 -20 -9 -6 -9 -8 1 -8 7 0 10 -5 6 -12 -5
-7 -3 -8 6 -3 8 5 11 4 6 -3 -6 -10 19 -11 29 0 8 8 45 -2 45 -13 0 -4 -9 -6
-20 -4 -17 3 -19 1 -10 -16 6 -11 8 -25 4 -32 -5 -8 -2 -7 9 2 16 12 22 8 18
-12 -1 -5 4 -5 10 -1 7 4 9 3 5 -4 -4 -7 1 -10 14 -7 13 3 18 0 14 -7 -4 -7
-2 -8 5 -4 9 6 9 11 0 22 -7 8 -7 14 -1 14 5 0 14 -6 20 -13 9 -10 6 -18 -10
-32 l-22 -18 22 -10 c22 -10 30 -27 12 -27 -5 0 -10 4 -10 9 0 5 -8 12 -18 15
-10 3 -26 19 -35 36 -11 18 -23 27 -32 23 -10 -3 -15 1 -15 12 0 9 -4 13 -10
10 -6 -3 -10 -2 -10 4 0 5 6 11 13 14 6 2 9 8 5 12 -5 5 -18 0 -30 -11 -14
-12 -18 -13 -10 -3 6 9 9 19 5 22 -3 4 -12 -1 -18 -10 -11 -15 -12 -12 -9 17
3 27 1 31 -8 22 -7 -7 -16 -12 -21 -12 -5 0 1 9 14 20 13 10 19 19 14 20 -6 0
-17 -6 -24 -12 -11 -10 -13 -10 -7 0 4 6 2 12 -4 12 -7 0 -9 7 -6 16 4 12 1
14 -14 9 -12 -4 -20 -2 -20 5 0 6 5 8 10 5 6 -3 10 3 10 14 0 26 -8 27 -27 4
-13 -17 -14 -17 -4 2 6 13 6 26 -1 38 -9 18 -10 18 -25 0 -12 -14 -12 -13 1 9
21 35 20 44 -1 27 -10 -7 -15 -9 -11 -5 4 5 3 15 -3 23 -7 7 -7 13 -2 13 6 0
9 11 9 25 -2 26 -16 48 -16 24 0 -12 -2 -12 -10 1 -5 9 -5 19 2 27 8 10 7 18
-4 31 -9 9 -13 24 -10 32 5 13 3 13 -14 0 -17 -14 -18 -14 -6 2 11 14 10 18
-5 27 -10 6 -13 11 -7 11 5 0 15 -5 22 -12 8 -8 12 -8 12 -1 0 6 -7 16 -15 23
-8 7 -12 16 -9 21 3 5 1 9 -3 9 -5 0 -9 11 -9 24 0 14 4 22 8 20 15 -10 8 9
-9 23 -13 11 -11 11 9 -1 25 -15 27 -15 25 4 -1 12 -8 19 -17 17 -11 -1 -15 8
-16 35 0 29 2 35 12 27 8 -6 14 -6 18 0 4 5 -4 13 -16 17 l-23 7 24 9 c23 8
23 9 5 29 -13 15 -14 20 -4 17 10 -2 14 6 14 27 0 19 -5 29 -13 27 -7 -1 -10
2 -6 8 5 8 11 8 20 0 8 -7 20 -8 27 -4z m1382 -5 c15 -16 15 -19 1 -24 -8 -4
-22 -4 -30 -1 -8 4 -15 1 -15 -5 0 -10 21 -16 43 -12 5 1 6 -3 3 -8 -4 -5 2
-16 13 -23 19 -13 18 -14 -7 -28 -15 -9 -46 -15 -69 -15 -23 1 -39 -3 -37 -7
3 -4 -2 -5 -10 -2 -9 3 -16 1 -16 -5 0 -6 5 -10 11 -8 6 1 14 -4 16 -11 4 -11
1 -12 -15 -3 -11 6 -22 17 -26 26 -3 8 -11 15 -18 15 -10 0 -10 -2 1 -9 7 -5
11 -13 7 -19 -3 -6 -2 -13 4 -17 6 -4 8 -11 5 -16 -9 -13 -21 -11 -23 4 -1 16
-7 38 -16 59 -4 9 -3 25 3 35 9 15 10 13 5 -11 -6 -25 -5 -27 12 -17 11 5 30
22 43 36 17 19 31 25 47 21 16 -4 21 -2 20 12 -1 12 5 16 22 15 26 -3 28 5 5
23 -10 7 -13 14 -7 14 6 0 19 -8 28 -19z m-67 -23 c-3 -8 -6 -5 -6 6 -1 11 2
17 5 13 3 -3 4 -12 1 -19z m109 -10 c5 -7 3 -8 -6 -3 -10 6 -12 2 -7 -15 4
-16 3 -20 -5 -12 -6 6 -8 18 -5 26 8 19 13 20 23 4z m-171 -18 c-3 -5 -12 -10
-18 -10 -7 0 -6 4 3 10 19 12 23 12 15 0z m-450 -29 c3 -5 1 -12 -5 -16 -5 -3
-10 1 -10 9 0 18 6 21 15 7z m389 -37 c3 -8 2 -12 -4 -9 -6 3 -10 10 -10 16 0
14 7 11 14 -7z m206 -5 c0 -5 6 -7 13 -3 10 6 10 4 0 -7 -18 -19 -16 -34 2
-19 13 10 12 6 -2 -18 -20 -35 -30 -40 -30 -17 0 8 4 12 9 9 4 -3 8 0 8 6 0 7
-7 9 -16 6 -8 -3 -12 -2 -9 4 3 5 0 7 -8 4 -8 -3 -18 0 -22 6 -4 7 2 9 20 6
15 -3 25 -2 21 1 -13 14 -47 12 -52 -2 -5 -11 -11 -12 -25 -4 -28 15 -15 26
26 24 20 -1 38 2 41 7 7 12 24 10 24 -3z m-609 -8 c4 -1 10 -8 13 -17 3 -8 2
-12 -4 -9 -6 3 -13 -1 -16 -9 -3 -9 -10 -16 -16 -16 -5 0 -7 4 -3 9 3 5 1 12
-5 16 -6 4 -7 11 -4 17 4 7 2 8 -5 4 -6 -4 -9 -16 -6 -27 8 -24 -10 -25 -19
-2 -8 20 17 43 42 38 9 -2 20 -4 23 -4z m40 -14 c-10 -9 -11 -8 -5 6 3 10 9
15 12 12 3 -3 0 -11 -7 -18z m794 4 c-1 -8 -7 -16 -14 -17 -7 -2 -7 0 -1 3 7
3 5 9 -5 17 -15 10 -14 12 3 12 12 0 19 -6 17 -15z m-1868 -22 c-1 -10 -5 -19
-10 -19 -4 0 -6 -4 -2 -9 3 -5 1 -12 -4 -16 -10 -6 -6 33 4 43 2 3 0 11 -7 19
-8 11 -7 12 5 7 9 -3 15 -14 14 -25z m1433 16 c4 3 13 -2 19 -9 9 -11 9 -16 0
-22 -8 -5 -10 -3 -4 7 5 8 5 11 1 7 -16 -13 -5 -23 26 -23 17 0 33 -6 35 -13
3 -8 -2 -10 -14 -6 -14 5 -15 4 -3 -4 18 -14 29 -7 27 18 -1 10 -4 17 -7 15
-3 -2 -12 5 -18 16 -12 19 -11 19 10 7 13 -8 37 -13 53 -12 34 2 73 -20 56
-31 -6 -3 -9 -11 -6 -16 4 -5 1 -9 -6 -9 -7 0 -5 -8 6 -20 10 -11 13 -20 7
-20 -14 0 -63 71 -56 82 3 4 -2 5 -10 2 -9 -3 -16 -10 -16 -16 0 -5 5 -6 12
-2 8 5 9 2 4 -12 -4 -10 -4 -15 0 -11 10 10 33 -24 27 -40 -3 -7 -9 -11 -13
-8 -5 3 -11 1 -14 -4 -4 -5 2 -8 11 -7 9 2 19 8 21 15 3 8 8 9 16 2 14 -12 47
-9 46 5 0 5 -5 9 -12 9 -6 0 -13 6 -16 13 -6 20 27 1 53 -29 15 -18 16 -20 3
-10 -10 7 -18 10 -18 6 0 -5 8 -17 18 -28 9 -11 12 -17 5 -14 -6 4 -13 1 -16
-5 -3 -10 -8 -9 -22 2 -15 12 -17 12 -10 1 5 -10 4 -12 -4 -7 -6 4 -19 -1 -29
-10 -15 -16 -15 -17 0 -12 23 9 30 -2 12 -19 -13 -14 -16 -14 -27 0 -9 11 -18
12 -32 6 -19 -9 -19 -9 2 -5 12 2 24 -2 27 -10 3 -8 1 -14 -4 -14 -6 0 -10 -5
-10 -10 0 -6 10 -4 23 5 13 8 27 12 30 8 4 -3 -7 -15 -24 -25 -29 -18 -30 -20
-13 -32 17 -13 17 -14 -3 -24 -11 -6 -24 -8 -28 -4 -5 4 -5 2 -1 -5 4 -7 14
-9 24 -6 15 6 15 5 3 -10 -11 -14 -17 -15 -30 -5 -14 12 -14 11 -2 -4 11 -15
11 -19 -4 -24 -16 -7 -16 -8 0 -16 9 -6 19 -7 22 -4 4 3 1 6 -5 6 -7 0 -5 7 5
19 9 11 22 17 29 14 17 -6 18 9 3 24 -8 8 -8 13 0 17 6 4 11 0 11 -10 0 -13 4
-11 20 7 10 13 19 18 20 12 0 -7 -4 -13 -9 -13 -10 0 -25 -35 -26 -59 0 -8 -6
-16 -14 -19 -10 -3 -12 0 -8 12 4 9 3 16 -2 16 -5 0 -11 -9 -14 -20 -3 -11 -1
-20 4 -20 5 0 9 -5 9 -11 0 -5 -5 -7 -11 -3 -8 4 -9 -1 -4 -17 4 -17 3 -20 -3
-10 -6 8 -12 10 -16 3 -4 -6 2 -15 11 -21 11 -6 13 -11 5 -11 -7 0 -11 -4 -8
-9 4 -5 -5 -4 -18 2 -13 7 -22 15 -19 19 2 5 8 6 13 3 5 -3 7 4 5 15 -3 13 0
18 7 14 6 -4 8 -3 4 4 -3 5 0 13 6 15 8 3 8 6 2 6 -6 1 -22 -8 -35 -20 -22
-19 -24 -19 -30 -2 -5 12 -7 7 -6 -15 0 -26 2 -30 9 -18 5 9 13 16 19 16 5 0
2 -11 -6 -24 -9 -13 -24 -23 -33 -21 -9 1 -11 0 -3 -2 11 -4 11 -7 2 -13 -9
-5 -8 -9 4 -13 9 -4 13 -3 10 2 -6 10 11 24 32 27 7 1 18 -5 25 -14 10 -14 10
-15 -2 -5 -19 17 -45 -3 -29 -23 8 -10 6 -12 -10 -9 -12 2 -21 0 -21 -6 0 -5
5 -9 10 -9 6 0 10 -5 10 -12 0 -9 -3 -9 -12 0 -17 17 -33 15 -19 -2 9 -11 9
-16 0 -22 -7 -4 -9 -3 -5 4 3 6 1 14 -4 17 -8 5 -6 13 6 26 9 10 12 19 7 19
-6 0 -13 -7 -17 -15 -3 -8 -12 -12 -21 -9 -8 3 -15 1 -15 -6 0 -6 5 -8 10 -5
6 3 10 3 11 -2 0 -4 2 -19 4 -33 2 -14 1 -19 -1 -12 -3 6 -10 9 -15 6 -6 -3
-5 -12 3 -22 11 -15 11 -15 -2 -5 -18 14 -31 14 -47 2 -13 -12 -33 18 -26 39
3 6 0 12 -6 12 -10 0 -8 -31 3 -49 9 -14 -25 -23 -40 -10 -10 8 -11 6 -1 -15
9 -20 14 -22 20 -10 5 8 12 12 18 9 5 -4 9 -1 9 6 0 7 3 9 7 6 3 -4 11 -3 17
3 7 5 17 5 26 -2 12 -8 12 -9 -3 -4 -12 4 -21 -1 -27 -17 -5 -12 -9 -16 -9 -9
-1 18 -25 10 -35 -13 -5 -11 -9 -23 -8 -26 0 -3 -5 -6 -13 -6 -8 0 -12 4 -9 9
6 10 -10 11 -19 1 -4 -3 -2 -12 4 -20 9 -9 8 -13 0 -13 -6 0 -11 5 -11 10 0 6
-5 10 -11 10 -6 0 -8 -9 -4 -22 4 -16 4 -19 -3 -9 -5 7 -14 11 -20 7 -6 -3
-14 -1 -18 5 -5 8 -3 9 6 4 9 -6 11 -4 5 5 -5 8 -4 11 1 7 14 -8 58 28 50 42
-4 6 -13 11 -19 11 -7 0 -6 -4 3 -10 8 -5 11 -12 7 -16 -3 -4 -14 -1 -23 7
-14 11 -18 11 -30 -5 -7 -11 -11 -22 -9 -27 3 -4 1 -10 -5 -14 -10 -6 -14 7
-11 34 2 7 -2 10 -7 7 -17 -10 -11 -54 7 -52 16 3 41 -16 41 -30 0 -5 -5 -3
-12 4 -14 14 -32 16 -24 4 3 -5 -1 -9 -9 -9 -8 0 -11 5 -8 10 3 5 0 7 -8 5 -8
-3 -13 -11 -11 -17 1 -7 -2 -9 -9 -5 -9 5 -10 0 -6 -16 4 -17 3 -20 -6 -11 -9
9 -8 16 1 32 12 19 11 20 -8 14 -21 -7 -25 13 -5 27 5 4 7 9 4 12 -3 3 -15 -3
-27 -15 -22 -19 -42 -18 -42 2 0 6 5 7 10 4 6 -3 13 1 16 9 3 9 10 14 14 11 5
-3 11 -1 14 4 4 5 -1 8 -10 7 -8 -1 -19 -8 -23 -15 -5 -7 -12 -13 -17 -14 -5
-1 -10 -6 -10 -12 -1 -5 -2 -14 -3 -20 -1 -5 -6 -3 -11 5 -6 10 -10 11 -10 3
0 -7 -5 -13 -11 -13 -6 0 -9 7 -5 15 7 20 -4 19 -21 -2 -13 -16 -14 -15 -9 12
l5 30 -13 -30 c-8 -16 -12 -33 -9 -38 2 -4 0 -7 -6 -7 -14 0 -43 31 -36 38 3
4 10 0 15 -8 6 -9 10 -10 10 -3 0 18 -20 27 -33 14 -6 -6 -15 -11 -21 -11 -6
0 -5 5 2 12 7 7 12 16 12 22 0 5 -6 1 -14 -9 -8 -11 -12 -23 -10 -27 2 -4 1
-9 -3 -11 -8 -5 -25 10 -34 28 -2 5 -13 11 -24 13 -18 2 -18 1 3 -13 12 -9 22
-21 22 -27 0 -6 -9 -3 -20 7 -12 11 -20 13 -20 6 0 -7 -4 -10 -9 -6 -5 3 -13
0 -17 -6 -4 -7 -3 -9 4 -5 6 3 13 2 17 -4 3 -5 20 -8 36 -5 21 4 31 1 35 -10
3 -8 11 -12 16 -9 6 4 6 9 -2 14 -9 6 -7 11 9 19 25 14 27 4 6 -25 -8 -12 -11
-25 -7 -30 4 -5 -3 0 -15 10 -25 21 -31 13 -10 -14 6 -9 3 -7 -8 5 -24 24 -55
31 -55 13 0 -7 -7 -2 -16 10 -8 12 -23 22 -32 22 -16 1 -16 1 0 11 11 6 15 16
11 27 -6 15 -5 15 10 3 15 -12 17 -12 11 3 -3 9 -9 16 -13 16 -10 0 -33 -17
-32 -24 2 -17 0 -26 -6 -26 -5 0 -9 11 -9 25 -1 17 3 25 15 26 12 0 12 2 -4 9
-20 8 -18 11 8 14 6 0 12 12 12 25 0 17 -6 25 -22 27 -27 4 -35 -7 -21 -26 8
-12 9 -12 5 2 -4 12 0 16 14 15 12 -1 19 -9 19 -21 0 -11 -3 -16 -6 -13 -4 4
-20 -3 -35 -14 -16 -11 -29 -16 -29 -10 0 5 5 13 10 16 6 3 10 12 10 18 0 7
-4 6 -10 -3 -10 -17 -62 -22 -57 -5 3 5 15 9 28 8 21 -2 22 -1 7 7 -12 8 -23
7 -37 -2 -17 -11 -23 -10 -37 4 -13 13 -15 20 -6 31 7 8 9 17 5 20 -3 4 -1 7
5 7 6 0 16 -8 21 -17 6 -10 11 -13 11 -6 0 6 -5 15 -11 19 -8 5 -8 9 1 14 8 5
6 9 -6 14 -10 4 -15 4 -12 0 4 -3 -7 -18 -24 -32 l-31 -26 -29 32 c-15 18 -33
30 -38 27 -6 -4 -8 -11 -4 -16 3 -5 9 -7 14 -4 5 3 8 -4 7 -16 l-1 -21 -17 21
c-10 12 -22 21 -28 21 -6 0 -11 4 -11 10 0 5 5 9 11 7 6 -1 20 10 32 25 16 21
18 30 8 41 -9 12 -8 16 4 21 9 3 15 0 15 -9 0 -20 12 -19 38 5 26 24 36 26 28
4 -9 -22 14 -50 25 -32 7 10 15 6 34 -14 21 -23 24 -32 15 -47 -18 -35 -11
-37 10 -3 17 28 24 32 49 27 22 -4 33 0 40 12 13 23 14 7 1 -17 -6 -11 -16
-17 -24 -14 -23 9 -27 -25 -5 -37 11 -6 23 -8 26 -6 2 3 -5 8 -16 12 -12 3
-19 11 -15 16 3 5 9 7 14 4 12 -7 50 31 42 41 -4 4 -1 4 6 0 7 -4 12 -2 12 5
0 7 3 10 6 6 4 -3 -3 -18 -15 -33 -11 -15 -21 -32 -21 -38 0 -6 6 -2 12 9 6
11 20 26 30 33 10 7 16 18 13 23 -4 5 -1 9 4 9 6 0 11 -5 11 -11 0 -5 4 -8 10
-4 5 3 7 13 4 23 -5 14 -3 14 6 -2 10 -14 10 -20 -1 -27 -7 -4 -16 -6 -19 -5
-3 2 -13 -5 -22 -16 -20 -20 -10 -25 11 -5 11 10 13 9 8 -5 -5 -13 2 -22 22
-32 23 -12 28 -12 28 -1 0 7 -7 11 -15 7 -10 -3 -13 -1 -8 6 4 8 2 10 -8 6
-11 -4 -13 0 -9 15 7 26 12 26 30 4 8 -10 11 -12 8 -5 -6 12 -17 100 -11 90 1
-1 8 -12 16 -22 13 -18 13 -19 0 -11 -8 4 -12 5 -8 1 3 -4 9 -7 13 -6 3 1 17
-5 30 -14 21 -14 23 -14 21 2 -2 9 -11 17 -22 17 -10 0 -19 7 -19 15 0 8 -4
19 -10 23 -6 5 -4 7 5 4 8 -2 14 -10 12 -16 -3 -14 4 -14 29 0 16 8 19 7 17
-3 -2 -8 2 -14 7 -15 6 -1 9 7 7 19 -2 12 1 18 6 14 16 -10 24 12 12 31 -10
16 -10 15 -5 -4 5 -17 2 -21 -12 -19 -10 2 -21 -1 -24 -7 -4 -5 -12 -6 -18 -2
-8 5 -9 11 -2 19 6 7 8 15 5 18 -2 3 2 8 10 11 10 4 13 1 10 -7 -3 -8 -1 -17
5 -21 10 -6 16 13 12 43 -1 6 3 12 9 12 6 0 9 -3 7 -7 -2 -5 3 -15 12 -23 14
-13 19 -13 41 8 19 18 20 21 5 16 -12 -5 -16 -4 -11 4 3 6 1 14 -5 18 -7 4 -9
3 -6 -3 4 -6 -1 -17 -11 -24 -9 -7 -14 -9 -10 -5 4 5 2 16 -5 24 -10 13 -9 14
2 7 11 -6 13 -4 8 8 -6 16 -4 16 24 1 36 -18 39 -16 45 26 4 24 2 30 -7 25 -8
-5 -10 -4 -5 4 6 9 11 9 22 0 11 -9 17 -9 29 1 8 7 15 8 15 2 0 -14 -25 -33
-33 -25 -4 3 -7 1 -7 -5 0 -7 4 -12 9 -12 13 0 71 59 71 73 0 6 6 19 13 28 10
13 15 14 24 4 7 -7 10 -15 7 -17 -2 -3 3 -5 11 -5 13 0 13 2 0 17 -20 22 -19
30 5 25 11 -2 23 1 26 7 4 7 2 8 -4 4 -7 -4 -12 -1 -12 6 0 9 -3 10 -8 2 -4
-6 -15 -10 -24 -8 -10 1 -18 -2 -18 -7 0 -5 -3 -8 -7 -8 -20 3 -33 -2 -33 -12
0 -8 5 -8 15 1 10 8 15 9 15 2 0 -6 -6 -15 -12 -19 -7 -4 -13 -14 -13 -22 0
-8 -6 -16 -14 -19 -10 -3 -11 0 -5 9 5 8 9 25 9 39 0 16 8 29 24 36 22 11 22
12 5 24 -12 7 -13 10 -4 7 21 -6 59 21 44 31 -9 5 -8 11 3 21 12 11 14 11 12
0 -3 -26 1 -42 9 -35 7 7 8 11 11 39 1 9 4 8 10 -2 10 -15 31 -7 31 12 0 9 -2
9 -8 1 -5 -8 -13 -5 -27 9 -20 20 -20 20 3 8 19 -10 23 -9 31 11 5 13 28 40
50 62 22 21 38 42 35 47 -3 5 0 9 6 9 7 0 10 -6 7 -12 -2 -7 2 -20 9 -29 12
-13 12 -16 -1 -17 -8 -1 -22 -3 -30 -4 -8 -1 -12 -5 -9 -10 3 -4 -3 -5 -13 -2
-10 3 -14 2 -8 -3 15 -12 18 -36 4 -27 -8 5 -9 3 -4 -6 5 -8 4 -11 -2 -7 -13
8 -9 -31 5 -45 8 -8 10 -4 6 17 -4 25 -3 27 11 15 10 -8 15 -9 15 -1 0 6 -5
11 -12 11 -6 0 -4 7 5 18 10 10 15 21 12 24 -3 3 2 8 11 12 12 5 15 2 9 -11
-17 -40 -15 -55 2 -21 18 36 19 36 32 17 7 -12 15 -19 18 -16 3 3 -4 16 -16
28 -12 13 -21 25 -22 28 0 3 -2 17 -4 31 -2 14 -1 19 1 12 3 -6 9 -10 14 -7z
m-910 -16 c0 -6 -4 -7 -10 -4 -5 3 -10 0 -10 -7 0 -9 -3 -9 -10 2 -7 11 -10
11 -10 2 0 -7 -5 -10 -11 -6 -8 4 -8 8 0 13 17 11 51 11 51 0z m55 -9 c3 -5 1
-10 -4 -10 -6 0 -11 5 -11 10 0 6 2 10 4 10 3 0 8 -4 11 -10z m55 -15 c7 -9 8
-15 2 -15 -5 0 -12 7 -16 15 -3 8 -4 15 -2 15 2 0 9 -7 16 -15z m1040 -15 c-7
-4 -10 -15 -7 -24 6 -15 4 -15 -23 -1 -17 9 -30 18 -30 21 0 2 9 0 19 -6 16
-8 21 -6 26 10 4 11 11 17 17 14 7 -4 6 -9 -2 -14z m-1351 -82 c-11 -15 -25
-28 -30 -28 -6 0 -8 -4 -4 -9 3 -5 1 -12 -4 -15 -5 -3 -11 1 -15 9 -3 9 3 19
14 25 11 6 25 20 31 33 10 18 7 17 -14 -5 -14 -16 -30 -28 -35 -28 -11 0 -32
22 -32 34 0 5 7 1 15 -10 15 -19 15 -19 9 1 -5 15 -4 17 5 9 10 -9 19 -5 38
14 34 34 51 11 22 -30z m411 37 c0 4 6 2 13 -4 8 -6 17 -8 21 -4 4 4 4 0 0
-10 -3 -9 -13 -17 -21 -17 -8 0 -11 -5 -7 -12 4 -7 4 -10 -1 -6 -4 4 -15 2
-24 -4 -9 -7 -13 -8 -9 -4 4 5 0 15 -10 23 -15 13 -15 13 4 4 21 -10 34 -6 34
11 0 5 -4 7 -8 4 -13 -8 -35 11 -27 23 5 9 10 9 21 0 8 -6 14 -8 14 -4z m200
-41 c0 -8 -19 -13 -24 -6 -3 5 1 9 9 9 8 0 15 -2 15 -3z m-567 -56 c-20 -23
-31 -15 -12 9 7 10 -1 5 -19 -11 -36 -34 -43 -24 -10 15 18 22 25 25 40 16 16
-10 16 -13 1 -29z m471 33 c3 -4 -4 -17 -15 -27 -18 -16 -19 -16 -13 -1 3 9
10 17 16 17 5 0 6 5 3 10 -3 6 -4 10 -1 10 3 0 7 -4 10 -9z m-57 -16 c0 -6 -8
-11 -17 -11 -9 0 -17 5 -17 11 0 6 8 11 17 11 9 0 17 -5 17 -11z m886 -14 c5
-5 4 -12 -4 -16 -8 -6 -10 -4 -4 5 5 8 3 11 -6 8 -8 -3 -13 -12 -11 -22 2 -9
-2 -16 -7 -16 -15 0 -23 18 -11 25 8 5 8 11 0 20 -10 12 -7 13 11 10 12 -3 27
-9 32 -14z m-1375 -23 c10 -10 7 -15 -10 -25 -13 -7 -17 -12 -10 -13 7 0 10
-4 7 -10 -6 -9 8 -14 28 -11 10 1 9 -7 -4 -30 -9 -18 -8 -19 8 -11 20 10 41 5
61 -15 20 -19 28 -17 57 20 14 17 23 24 19 15 -4 -13 -1 -16 14 -15 12 0 18 5
16 9 -3 5 -10 5 -16 2 -7 -4 -8 -2 -4 4 9 15 -12 54 -25 47 -5 -4 -9 -12 -9
-18 0 -7 4 -6 11 3 8 12 10 12 7 -4 -2 -14 -12 -20 -33 -22 -16 -1 -40 -5 -51
-9 -28 -9 -43 14 -20 30 14 11 14 13 -9 13 -14 0 -25 -6 -25 -12 0 -6 -4 -4
-10 4 -11 18 7 31 35 25 11 -3 14 -2 8 1 -21 10 -14 22 12 22 14 0 25 -4 25
-9 0 -5 -5 -9 -12 -9 -6 0 -8 -3 -4 -7 4 -5 14 1 22 11 14 20 64 32 64 15 0
-6 -4 -7 -10 -4 -5 3 -10 1 -10 -6 0 -8 -5 -8 -17 2 -10 7 -15 9 -11 5 4 -5 3
-15 -3 -23 -9 -10 -8 -13 0 -13 7 0 9 -4 6 -10 -3 -5 -1 -10 5 -10 6 0 9 8 6
18 -7 20 20 27 41 10 7 -5 14 -5 18 2 3 5 1 10 -6 10 -7 0 -10 3 -6 6 3 3 11
3 17 -1 8 -5 8 -11 -1 -21 -6 -8 -9 -18 -5 -21 4 -4 10 -3 14 3 8 12 27 12 39
1 4 -5 4 -8 -2 -7 -24 5 -34 -1 -30 -20 4 -19 -26 -46 -38 -34 -3 4 -18 -3
-33 -15 -15 -11 -23 -21 -19 -21 5 0 17 7 27 17 10 9 21 14 24 10 8 -8 -33
-47 -42 -39 -4 4 1 -5 11 -20 19 -31 31 -38 17 -10 -10 19 -5 45 8 37 5 -3 11
4 15 15 8 26 20 26 22 0 1 -11 -2 -18 -7 -15 -5 3 -8 -3 -7 -14 0 -11 4 -18 8
-15 4 2 10 -2 13 -8 3 -7 4 -4 1 7 -2 11 -1 25 3 30 9 13 32 18 32 7 0 -9 17
-12 58 -12 12 0 22 -5 22 -10 0 -5 -8 -7 -17 -4 -17 5 -17 5 0 -9 9 -8 17 -19
17 -26 0 -14 6 -14 33 0 22 11 22 11 0 -10 -13 -12 -23 -27 -23 -33 0 -7 6 -4
13 6 13 18 14 18 21 0 7 -18 8 -18 22 1 11 14 15 15 14 5 -1 -8 -2 -22 -1 -30
1 -12 3 -12 10 -2 5 9 8 3 9 -18 0 -17 -4 -28 -9 -24 -5 3 -6 10 -3 16 5 7 2
8 -6 3 -9 -6 -11 -4 -5 6 6 11 5 12 -5 2 -12 -11 -11 -15 5 -27 21 -15 49 -10
38 8 -4 7 -1 7 9 -1 8 -7 18 -10 22 -6 4 4 -3 12 -15 18 -19 11 -19 13 -5 18
10 4 15 3 11 -2 -3 -5 0 -11 7 -13 6 -2 13 -13 14 -25 3 -17 -2 -20 -36 -19
-25 1 -47 9 -63 24 -15 14 -30 20 -40 16 -10 -3 -17 -2 -17 4 0 16 26 22 40 9
10 -9 11 -9 6 0 -5 9 -2 11 8 7 9 -3 16 -1 16 6 0 6 -4 9 -9 5 -5 -3 -13 -1
-16 5 -5 8 -11 8 -20 0 -10 -9 -16 -7 -24 8 -6 11 -7 23 -3 27 4 5 1 5 -5 1
-9 -5 -11 -2 -7 11 5 15 4 16 -5 3 -9 -13 -11 -13 -11 0 0 8 -7 2 -15 -14 -16
-30 -14 -43 4 -31 6 3 9 11 6 16 -7 10 8 12 18 2 4 -3 -2 -17 -14 -29 l-22
-23 -19 22 c-11 12 -17 17 -14 11 3 -7 -1 -15 -10 -18 -12 -5 -14 -9 -5 -20 6
-7 9 -21 5 -30 -7 -19 -9 -19 -35 -5 -13 7 -24 7 -32 1 -16 -14 -37 8 -37 39
0 5 -5 7 -10 4 -6 -3 -13 1 -16 9 -3 9 -12 16 -20 16 -8 0 -14 5 -14 10 0 15
16 12 30 -5 14 -17 30 -20 30 -4 0 5 -4 7 -10 4 -5 -3 -10 -2 -10 4 0 5 6 12
13 15 6 3 3 4 -8 1 -11 -2 -24 -1 -30 3 -14 10 -17 32 -4 32 8 0 8 4 0 14 -6
8 -10 20 -9 27 2 9 -5 13 -16 12 -23 -2 -48 26 -41 45 3 7 -7 29 -22 48 -14
19 -22 34 -17 33 27 -5 36 1 24 16 -15 18 1 20 18 3z m-88 -28 c0 -5 -5 -10
-11 -10 -5 0 -7 5 -4 10 3 6 8 10 11 10 2 0 4 -4 4 -10z m1437 -19 c0 -11 -5
-17 -9 -15 -5 3 -5 11 -1 17 4 7 0 6 -10 -2 -10 -7 -17 -9 -17 -3 0 9 15 19
32 21 4 1 6 -8 5 -18z m219 -1 c0 -9 -9 -17 -21 -18 -14 -1 -16 1 -6 7 7 5 11
13 8 18 -3 5 -1 10 6 10 7 0 13 -8 13 -17z m-1626 0 c0 -5 -4 -10 -10 -10 -5
0 -10 5 -10 10 0 6 5 10 10 10 6 0 10 -4 10 -10z m907 -5 c0 -8 -4 -12 -9 -9
-5 3 -6 10 -3 15 9 13 12 11 12 -6z m476 -8 c4 3 7 2 7 -4 0 -17 -13 -23 -27
-12 -7 6 -13 16 -13 21 0 7 5 6 13 -1 8 -6 17 -8 20 -4z m-480 -39 c-12 -14
-19 -15 -30 -7 -7 6 -13 17 -12 23 0 7 2 6 6 -2 2 -6 9 -9 14 -6 6 4 6 11 -1
19 -10 12 -7 12 14 2 23 -11 23 -13 9 -29z m-605 24 c10 7 6 0 -7 -15 -24 -27
-17 -38 8 -14 11 10 13 10 7 0 -4 -7 -2 -13 3 -13 6 0 11 -4 11 -8 0 -4 -15
-8 -33 -8 -34 0 -47 20 -21 30 8 3 12 11 10 18 -1 7 -1 9 2 5 2 -4 11 -2 20 5z
m-108 -8 c0 -3 -7 -12 -15 -21 -13 -12 -18 -13 -31 -2 -9 7 -11 15 -5 18 13 8
51 11 51 5z m-180 -33 c0 -6 -4 -12 -8 -15 -5 -3 -9 1 -9 9 0 8 4 15 9 15 4 0
8 -4 8 -9z m836 -38 c-4 -23 -13 -23 -32 -1 -18 22 -18 22 0 8 18 -14 18 -13
11 9 -6 21 -5 22 8 10 8 -8 14 -19 13 -26z m750 -15 c-13 -7 -14 -13 -7 -22 8
-10 5 -18 -13 -31 -23 -17 -23 -20 -8 -32 14 -11 13 -11 -11 -1 -23 10 -25 13
-12 20 8 5 12 14 9 20 -4 7 -2 8 4 4 8 -5 11 0 8 16 -4 29 11 49 31 41 13 -5
13 -7 -1 -15z m-59 -94 c-3 -3 -12 -4 -19 -1 -8 3 -5 6 6 6 11 1 17 -2 13 -5z
m-1650 -41 c0 -37 3 -44 16 -37 6 4 9 3 4 -1 -4 -5 0 -17 10 -27 24 -27 8 -34
-23 -9 -15 12 -21 21 -13 21 11 0 11 2 -1 10 -8 5 -11 10 -6 10 5 0 4 6 -3 13
-8 10 -7 17 1 25 15 15 15 15 15 -5z m1642 -44 c-7 -4 -17 -5 -21 -3 -5 3 -11
-2 -14 -10 -8 -20 -21 -21 -21 -1 0 8 2 13 5 10 3 -2 14 2 25 10 11 8 25 12
30 8 5 -3 3 -9 -4 -14z m-48 -46 c3 1 -1 -5 -8 -13 -10 -11 -15 -11 -25 -2 -9
9 -9 12 1 12 7 0 9 5 5 13 -6 9 -5 9 8 0 8 -7 17 -12 19 -10z m-1296 -13 c3
-5 1 -10 -4 -10 -6 0 -11 5 -11 10 0 6 2 10 4 10 3 0 8 -4 11 -10z m186 -4
c-15 -18 -5 -41 25 -54 21 -10 29 -22 25 -44 0 -4 7 -5 17 -2 10 4 13 2 7 -3
-17 -14 -16 -33 3 -34 9 0 12 -3 5 -5 -7 -3 -21 0 -32 5 -15 8 -19 19 -16 41
2 17 -1 30 -6 30 -6 0 -9 -7 -7 -16 2 -10 -3 -19 -9 -21 -7 -3 -13 0 -13 6 0
6 -5 11 -11 11 -6 0 -19 10 -29 23 -19 22 -19 22 13 49 35 30 46 35 28 14z
m750 -69 c-10 -9 -11 -8 -5 6 3 10 9 15 12 12 3 -3 0 -11 -7 -18z m-96 -5
c-12 -12 -33 -10 -28 3 2 8 11 11 19 8 8 -3 12 -8 9 -11z m-565 -7 c6 -8 9
-19 5 -24 -3 -7 0 -8 9 -5 9 3 14 11 13 16 -1 6 3 12 9 15 7 2 10 -8 9 -27 -1
-24 4 -34 32 -50 18 -10 33 -24 33 -30 0 -5 -10 0 -21 11 -17 17 -23 19 -30 8
-7 -11 -9 -11 -9 3 0 11 -7 15 -22 12 -21 -4 -22 -4 -3 5 11 5 17 10 13 12
-22 5 -29 7 -39 8 -6 0 -8 8 -5 16 3 9 -1 18 -9 21 -16 7 -21 24 -6 24 5 0 14
-7 21 -15z m-105 -33 c-3 -3 -11 0 -18 7 -9 10 -8 11 6 5 10 -3 15 -9 12 -12z
m532 -9 c-4 -3 -2 -12 5 -20 6 -7 8 -16 4 -20 -3 -3 -6 -1 -6 5 0 13 -28 16
-54 6 -9 -3 -13 -11 -9 -17 3 -6 1 -7 -5 -3 -7 4 -12 2 -12 -4 0 -6 -4 -9 -9
-5 -5 3 -13 1 -16 -5 -10 -16 -34 7 -32 29 1 15 9 18 39 16 21 -1 41 1 44 6 2
4 11 6 18 3 8 -3 17 -1 21 5 3 6 9 11 12 11 4 0 3 -3 0 -7z m-161 -46 c5 -1 7
-8 6 -16 -2 -8 1 -10 10 -5 7 4 10 3 5 -1 -9 -11 -48 -14 -41 -4 2 4 -1 9 -7
11 -5 2 -7 11 -3 22 5 12 9 14 14 6 4 -6 11 -12 16 -13z m148 5 c2 -4 -4 -8
-14 -8 -10 0 -16 4 -14 8 3 4 9 8 14 8 5 0 11 -4 14 -8z m-739 -32 c-3 -5 -2
-10 4 -10 5 0 12 6 15 13 3 6 4 3 3 -8 -1 -14 3 -19 16 -17 15 3 22 -9 18 -31
-1 -5 8 -6 19 -2 12 4 20 2 20 -5 0 -6 5 -8 12 -4 6 4 8 3 4 -4 -3 -6 -2 -13
3 -16 5 -4 12 2 14 11 3 11 5 5 6 -12 1 -21 4 -26 10 -17 6 10 10 7 13 -12 3
-14 4 -26 2 -26 -2 0 -18 15 -36 33 -18 17 -40 33 -48 35 -8 2 -22 10 -31 18
-9 8 -19 11 -24 7 -4 -5 -5 -3 -1 4 4 7 -2 17 -14 23 -21 11 -27 30 -9 30 5 0
7 -4 4 -10z m705 6 c0 -3 -4 -8 -10 -11 -5 -3 -10 -1 -10 4 0 6 5 11 10 11 6
0 10 -2 10 -4z m-184 -204 c-17 -16 -18 -16 -5 5 7 12 15 20 18 17 3 -2 -3
-12 -13 -22z m40 19 c-3 -5 1 -12 10 -15 8 -3 12 -2 9 3 -3 5 0 13 7 17 7 4
10 4 6 -1 -4 -4 -2 -15 4 -23 10 -12 8 -13 -12 -10 -27 3 -42 17 -34 30 3 4 7
8 10 8 3 0 3 -4 0 -9z m76 -35 c-3 -5 -11 -1 -19 9 -19 27 -16 38 5 18 11 -10
17 -22 14 -27z"/>
<path d="M1460 2181 c0 -6 4 -13 10 -16 6 -3 7 1 4 9 -7 18 -14 21 -14 7z"/>
<path d="M1346 1958 c3 -5 10 -6 15 -3 13 9 11 12 -6 12 -8 0 -12 -4 -9 -9z"/>
<path d="M546 1411 c-4 -5 -2 -12 3 -15 5 -4 12 -2 15 3 4 5 2 12 -3 15 -5 4
-12 2 -15 -3z"/>
<path d="M523 1301 c0 -22 1 -23 12 -8 6 9 15 14 19 10 4 -4 4 0 1 8 -9 25
-32 18 -32 -10z"/>
<path d="M529 1204 c6 -12 8 -24 5 -26 -2 -3 2 -11 10 -17 20 -17 16 9 -7 40
-14 20 -16 20 -8 3z"/>
<path d="M566 1042 c-3 -5 1 -9 9 -9 8 0 12 4 9 9 -3 4 -7 8 -9 8 -2 0 -6 -4
-9 -8z"/>
<path d="M830 671 c0 -5 5 -13 10 -16 6 -3 10 -2 10 4 0 5 -4 13 -10 16 -5 3
-10 2 -10 -4z"/>
<path d="M1855 1409 c-4 -5 -2 -16 4 -23 8 -9 7 -13 -4 -13 -8 0 -12 4 -9 9 9
13 -13 9 -25 -5 -14 -18 -3 -29 18 -18 9 4 36 7 60 7 27 -1 45 3 48 11 3 7 10
10 17 7 6 -4 4 1 -6 11 -18 20 -94 30 -103 14z m80 -20 c2 -8 -5 -15 -15 -15
-10 0 -16 4 -14 8 3 4 0 8 -5 8 -6 0 -11 -6 -11 -12 0 -13 -20 10 -20 23 0 15
63 3 65 -12z"/>
<path d="M1340 1324 c0 -8 5 -12 10 -9 6 4 8 11 5 16 -9 14 -15 11 -15 -7z"/>
<path d="M1705 1289 c-9 -14 -2 -20 14 -10 8 6 9 11 3 15 -6 3 -14 1 -17 -5z"/>
<path d="M1904 1289 c-3 -6 -1 -16 5 -22 9 -9 10 -7 5 7 -6 15 -4 17 6 11 9
-5 11 -4 6 3 -9 15 -13 15 -22 1z"/>
<path d="M1651 1236 c-7 -8 -10 -19 -7 -25 3 -5 1 -12 -4 -14 -6 -3 -5 -4 2
-3 7 2 13 7 13 12 0 5 4 15 9 22 12 19 1 25 -13 8z"/>
<path d="M1810 1243 c5 -2 8 -9 5 -13 -3 -5 -1 -11 4 -14 5 -4 8 2 7 11 -2 9
-8 18 -15 19 -6 1 -7 0 -1 -3z"/>
<path d="M1844 1239 c-4 -7 -3 -9 4 -5 6 3 13 -2 15 -11 4 -16 5 -16 6 -1 1
21 -15 32 -25 17z"/>
<path d="M1775 1190 c-4 -6 -11 -8 -16 -5 -5 4 -9 1 -9 -4 0 -16 16 -13 30 4
7 8 10 15 7 15 -3 0 -9 -5 -12 -10z"/>
<path d="M1838 1193 c7 -3 16 -2 19 1 4 3 -2 6 -13 5 -11 0 -14 -3 -6 -6z"/>
<path d="M1795 1181 c-3 -5 -2 -12 3 -15 5 -3 9 1 9 9 0 17 -3 19 -12 6z"/>
<path d="M1913 1168 c-2 -18 0 -20 7 -8 12 18 13 30 2 30 -4 0 -9 -10 -9 -22z"/>
<path d="M1940 1179 c0 -5 4 -8 9 -4 5 3 12 1 16 -5 4 -6 11 -8 16 -4 5 3 7
10 4 15 -8 13 -45 11 -45 -2z"/>
<path d="M1643 1174 c5 -8 -41 -39 -73 -49 -25 -8 -39 -19 -33 -28 4 -6 10 -5
17 4 13 17 36 23 36 9 0 -5 8 -10 18 -10 16 1 16 1 -1 11 -17 10 -15 12 15 29
23 12 35 14 40 6 6 -8 8 -8 8 0 0 6 -8 18 -17 25 -9 8 -14 9 -10 3z"/>
<path d="M1867 1159 c7 -9 10 -19 6 -23 -4 -4 1 -4 10 0 10 3 17 7 15 8 -2 1
-12 8 -23 16 -18 14 -19 13 -8 -1z"/>
<path d="M1635 1129 c-4 -6 -5 -12 -2 -15 2 -3 7 2 10 11 7 17 1 20 -8 4z"/>
<path d="M1773 1115 c0 -8 4 -12 9 -9 5 3 6 10 3 15 -9 13 -12 11 -12 -6z"/>
<path d="M1650 1116 c0 -2 8 -10 18 -17 15 -13 16 -12 3 4 -13 16 -21 21 -21
13z"/>
<path d="M1633 1085 c0 -8 4 -12 9 -9 5 3 6 10 3 15 -9 13 -12 11 -12 -6z"/>
<path d="M1816 1082 c-3 -5 1 -9 9 -9 8 0 12 4 9 9 -3 4 -7 8 -9 8 -2 0 -6 -4
-9 -8z"/>
<path d="M1850 1085 c0 -5 5 -17 10 -25 5 -8 10 -10 10 -5 0 6 -5 17 -10 25
-5 8 -10 11 -10 5z"/>
<path d="M1600 1060 c-9 -6 -10 -10 -3 -10 6 0 15 5 18 10 8 12 4 12 -15 0z"/>
<path d="M1830 1056 c0 -2 8 -10 18 -17 15 -13 16 -12 3 4 -13 16 -21 21 -21
13z"/>
<path d="M1526 1023 c-6 -14 -5 -15 5 -6 7 7 10 15 7 18 -3 3 -9 -2 -12 -12z"/>
<path d="M1877 1029 c7 -7 15 -10 18 -7 3 3 -2 9 -12 12 -14 6 -15 5 -6 -5z"/>
<path d="M1840 995 c-7 -9 -8 -15 -2 -15 5 0 12 7 16 15 3 8 4 15 2 15 -2 0
-9 -7 -16 -15z"/>
<path d="M1516 962 c-3 -5 1 -9 9 -9 8 0 12 4 9 9 -3 4 -7 8 -9 8 -2 0 -6 -4
-9 -8z"/>
<path d="M1826 958 c3 -5 10 -6 15 -3 13 9 11 12 -6 12 -8 0 -12 -4 -9 -9z"/>
<path d="M1456 942 c-2 -4 -1 -14 4 -22 7 -11 9 -9 7 8 -1 24 -3 26 -11 14z"/>
<path d="M1775 940 c3 -5 8 -10 11 -10 2 0 4 5 4 10 0 6 -5 10 -11 10 -5 0 -7
-4 -4 -10z"/>
<path d="M1430 931 c0 -6 4 -13 10 -16 6 -3 7 1 4 9 -7 18 -14 21 -14 7z"/>
<path d="M1815 930 c-4 -6 1 -7 11 -3 12 4 15 3 10 -5 -5 -8 -2 -10 9 -5 13 5
14 7 3 14 -17 11 -26 11 -33 -1z"/>
<path d="M1410 900 c0 -5 5 -10 10 -10 6 0 10 5 10 10 0 6 -4 10 -10 10 -5 0
-10 -4 -10 -10z"/>
<path d="M1735 880 c3 -5 8 -10 11 -10 2 0 4 5 4 10 0 6 -5 10 -11 10 -5 0 -7
-4 -4 -10z"/>
<path d="M1390 869 c0 -5 -5 -7 -12 -3 -7 4 -8 3 -4 -5 6 -9 11 -9 22 0 17 14
18 19 4 19 -5 0 -10 -5 -10 -11z"/>
<path d="M1780 860 c-9 -6 -10 -10 -3 -10 6 0 15 5 18 10 8 12 4 12 -15 0z"/>
<path d="M1375 829 c-4 -6 -5 -12 -2 -15 2 -3 7 2 10 11 7 17 1 20 -8 4z"/>
<path d="M1345 820 c3 -5 8 -10 11 -10 2 0 4 5 4 10 0 6 -5 10 -11 10 -5 0 -7
-4 -4 -10z"/>
<path d="M1406 822 c-3 -5 1 -9 9 -9 8 0 12 4 9 9 -3 4 -7 8 -9 8 -2 0 -6 -4
-9 -8z"/>
<path d="M1700 826 c0 -2 8 -10 18 -17 15 -13 16 -12 3 4 -13 16 -21 21 -21
13z"/>
<path d="M897 813 c-4 -3 -7 -11 -7 -17 0 -6 5 -5 12 2 6 6 9 14 7 17 -3 3 -9
2 -12 -2z"/>
<path d="M1765 800 c3 -5 8 -10 11 -10 2 0 4 5 4 10 0 6 -5 10 -11 10 -5 0 -7
-4 -4 -10z"/>
<path d="M872 776 c7 -8 15 -12 17 -11 5 6 -10 25 -20 25 -5 0 -4 -6 3 -14z"/>
<path d="M905 780 c-3 -5 0 -7 8 -4 8 3 18 1 22 -5 3 -7 -2 -11 -14 -11 -11 0
-22 -4 -25 -9 -8 -12 35 -1 53 13 11 8 15 8 18 -1 3 -7 9 -13 14 -13 5 0 4 9
-3 19 -9 14 -16 17 -24 10 -8 -7 -14 -6 -19 1 -8 13 -22 13 -30 0z"/>
<path d="M1655 780 c-3 -5 -1 -10 4 -10 6 0 11 5 11 10 0 6 -2 10 -4 10 -3 0
-8 -4 -11 -10z"/>
<path d="M1710 779 c0 -5 5 -7 10 -4 6 3 10 8 10 11 0 2 -4 4 -10 4 -5 0 -10
-5 -10 -11z"/>
<path d="M870 740 c12 -16 26 -30 33 -30 6 0 1 9 -11 20 -12 12 -22 25 -22 30
0 6 -5 10 -11 10 -6 0 -1 -13 11 -30z"/>
<path d="M1230 760 c0 -5 7 -7 15 -4 11 5 14 1 9 -12 -5 -15 -4 -16 4 -4 6 8
8 18 6 22 -7 11 -34 10 -34 -2z"/>
<path d="M1308 763 c7 -3 16 -2 19 1 4 3 -2 6 -13 5 -11 0 -14 -3 -6 -6z"/>
<path d="M1730 759 c0 -5 -4 -8 -9 -4 -5 3 -13 0 -17 -6 -4 -7 -3 -9 4 -5 6 3
13 2 17 -4 3 -5 -1 -10 -9 -10 -9 0 -16 -4 -16 -8 0 -15 40 -7 57 11 11 11 13
17 5 17 -7 0 -12 -5 -12 -11 0 -5 -4 -8 -10 -4 -5 3 -7 12 -3 20 3 8 2 15 -1
15 -3 0 -6 -5 -6 -11z"/>
<path d="M1025 740 c-3 -5 -2 -10 4 -10 5 0 13 5 16 10 3 6 2 10 -4 10 -5 0
-13 -4 -16 -10z"/>
<path d="M1276 742 c-3 -5 1 -9 9 -9 8 0 12 4 9 9 -3 4 -7 8 -9 8 -2 0 -6 -4
-9 -8z"/>
<path d="M1014 701 c2 -14 9 -27 17 -29 11 -3 12 -2 1 6 -8 5 -13 12 -12 16 1
4 -1 12 -4 19 -2 6 -3 1 -2 -12z"/>
<path d="M1036 707 c3 -10 9 -15 12 -12 3 3 0 11 -7 18 -10 9 -11 8 -5 -6z"/>
<path d="M1122 704 c-7 -8 -8 -14 -3 -14 10 0 25 19 20 25 -2 1 -10 -3 -17
-11z"/>
<path d="M1153 692 c-1 -22 0 -24 9 -8 6 10 6 22 2 26 -5 5 -10 -3 -11 -18z"/>
<path d="M1250 716 c0 -2 8 -10 18 -17 15 -13 16 -12 3 4 -13 16 -21 21 -21
13z"/>
<path d="M1295 709 c-4 -6 -5 -12 -2 -15 2 -3 7 2 10 11 7 17 1 20 -8 4z"/>
<path d="M1535 701 c-3 -5 -2 -12 3 -15 5 -3 9 1 9 9 0 17 -3 19 -12 6z"/>
<path d="M1575 699 c-3 -4 2 -6 10 -5 21 3 28 13 10 13 -9 0 -18 -4 -20 -8z"/>
<path d="M1655 700 c3 -5 8 -10 11 -10 2 0 4 5 4 10 0 6 -5 10 -11 10 -5 0 -7
-4 -4 -10z"/>
<path d="M950 680 c0 -6 7 -10 15 -10 8 0 15 2 15 4 0 2 -7 6 -15 10 -8 3 -15
1 -15 -4z"/>
<path d="M1173 678 c-3 -7 -1 -8 5 -4 11 7 17 -6 13 -27 -1 -5 3 -6 8 -2 6 3
7 13 4 22 -5 12 -3 14 8 8 8 -5 11 -4 6 0 -12 13 -36 15 -44 3z"/>
<path d="M1610 683 c0 -7 5 -13 10 -13 6 0 10 -6 10 -14 0 -8 5 -18 10 -21 17
-10 11 11 -10 36 -10 13 -19 18 -20 12z"/>
<path d="M1130 661 c0 -11 4 -22 9 -25 4 -3 6 6 3 19 -5 30 -12 33 -12 6z"/>
<path d="M1270 676 c0 -2 8 -10 18 -17 15 -13 16 -12 3 4 -13 16 -21 21 -21
13z"/>
<path d="M1315 669 c-4 -6 -5 -12 -2 -15 2 -3 7 2 10 11 7 17 1 20 -8 4z"/>
<path d="M1464 658 c-12 -14 -13 -18 -3 -10 9 6 18 10 21 7 2 -3 5 2 5 10 0
19 0 19 -23 -7z"/>
<path d="M1375 661 c-3 -5 -2 -12 3 -15 5 -3 9 1 9 9 0 17 -3 19 -12 6z"/>
<path d="M1526 658 c3 -4 9 -8 15 -8 5 0 9 4 9 8 0 5 -7 9 -15 9 -8 0 -12 -4
-9 -9z"/>
<path d="M1264 630 c0 -13 4 -16 10 -10 7 7 7 13 0 20 -6 6 -10 3 -10 -10z"/>
<path d="M1484 634 c-18 -14 -18 -15 4 -4 12 6 22 13 22 15 0 8 -5 6 -26 -11z"/>
<path d="M1298 618 c4 -16 2 -19 -8 -13 -9 5 -11 4 -6 -4 4 -6 12 -9 17 -6 12
8 12 32 0 39 -5 4 -7 -4 -3 -16z"/>
<path d="M1149 620 c-6 -4 1 -7 15 -7 14 0 26 3 26 7 0 3 -7 7 -15 7 -8 0 -19
-4 -26 -7z"/>
<path d="M1346 622 c-3 -5 1 -9 9 -9 8 0 15 4 15 9 0 4 -4 8 -9 8 -6 0 -12 -4
-15 -8z"/>
<path d="M1220 611 c0 -7 -5 -9 -12 -5 -7 5 -8 3 -3 -5 5 -9 10 -10 18 -2 6 6
8 14 4 18 -4 3 -7 1 -7 -6z"/>
<path d="M1484 595 c3 -23 12 -26 13 -5 1 11 -2 20 -7 20 -4 0 -7 -7 -6 -15z"/>
<path d="M683 1055 c-19 -21 -16 -27 7 -13 11 7 20 16 20 20 0 12 -14 9 -27
-7z"/>
<path d="M642 993 c-6 -2 -9 -9 -6 -15 4 -6 10 -5 15 3 6 11 15 7 39 -16 16
-16 30 -26 30 -22 0 8 -53 57 -60 56 -3 0 -11 -3 -18 -6z"/>
<path d="M692 934 c9 -9 21 -15 27 -13 6 2 -2 10 -17 17 -25 11 -25 11 -10 -4z"/>
<path d="M830 946 c0 -4 7 -14 15 -23 9 -8 13 -18 10 -21 -3 -4 -10 0 -15 8
-7 11 -10 11 -10 2 0 -7 7 -15 15 -18 8 -4 12 -11 8 -18 -4 -6 1 -5 10 3 9 7
14 17 11 22 -5 9 10 13 30 10 5 -1 4 5 -3 13 -7 9 -17 14 -21 11 -5 -3 -11 1
-13 7 -4 10 -6 9 -6 -1 -1 -11 -4 -11 -16 -1 -8 7 -15 9 -15 6z"/>
<path d="M690 900 c0 -5 5 -10 10 -10 6 0 10 5 10 10 0 6 -4 10 -10 10 -5 0
-10 -4 -10 -10z"/>
<path d="M720 900 c0 -5 5 -10 10 -10 6 0 10 5 10 10 0 6 -4 10 -10 10 -5 0
-10 -4 -10 -10z"/>
<path d="M780 900 c0 -5 5 -10 10 -10 6 0 10 5 10 10 0 6 -4 10 -10 10 -5 0
-10 -4 -10 -10z"/>
<path d="M747 876 c-4 -10 -1 -13 9 -9 10 4 12 0 8 -11 -3 -9 -10 -13 -15 -10
-5 3 -9 0 -9 -5 0 -6 5 -11 11 -11 5 0 7 -5 3 -12 -4 -6 -3 -8 4 -4 6 3 13 2
17 -4 3 -5 11 -10 18 -10 6 0 2 7 -10 15 -21 15 -22 52 -1 39 5 -3 4 3 -4 15
-15 25 -24 26 -31 7z"/>
<path d="M815 880 c3 -5 11 -10 16 -10 6 0 7 5 4 10 -3 6 -11 10 -16 10 -6 0
-7 -4 -4 -10z"/>
<path d="M802 864 c10 -10 20 -16 22 -13 3 3 -5 11 -17 18 -21 13 -21 12 -5
-5z"/>
<path d="M780 836 c0 -2 7 -6 15 -10 8 -3 15 -1 15 4 0 6 -7 10 -15 10 -8 0
-15 -2 -15 -4z"/>
<path d="M810 800 c0 -5 5 -10 11 -10 5 0 7 5 4 10 -3 6 -8 10 -11 10 -2 0 -4
-4 -4 -10z"/>
<path d="M450 746 c0 -2 8 -10 18 -17 15 -13 16 -12 3 4 -13 16 -21 21 -21 13z"/>
<path d="M885 660 c-4 -7 8 -19 49 -50 18 -13 19 -13 11 0 -6 8 -10 17 -11 20
-6 31 -37 49 -49 30z m41 -28 c-4 -3 -14 2 -24 12 -16 18 -16 18 6 6 13 -6 21
-14 18 -18z"/>
<path d="M970 580 c0 -5 5 -10 11 -10 5 0 7 5 4 10 -3 6 -8 10 -11 10 -2 0 -4
-4 -4 -10z"/>
<path d="M1330 540 c-5 -3 -6 -11 -2 -17 5 -8 14 -7 30 6 22 16 22 17 2 17
-11 0 -25 -3 -30 -6z"/>
<path d="M1266 518 c3 -5 10 -6 15 -3 13 9 11 12 -6 12 -8 0 -12 -4 -9 -9z"/>
<path d="M1235 2240 c3 -5 8 -10 11 -10 2 0 4 5 4 10 0 6 -5 10 -11 10 -5 0
-7 -4 -4 -10z"/>
<path d="M966 2222 c-3 -5 1 -9 9 -9 8 0 12 4 9 9 -3 4 -7 8 -9 8 -2 0 -6 -4
-9 -8z"/>
<path d="M1346 2214 c-4 -9 -4 -19 -1 -22 3 -3 5 0 5 7 0 7 4 9 10 6 6 -3 7 1
4 9 -8 20 -10 20 -18 0z"/>
<path d="M1407 2213 c3 -7 6 -13 8 -13 2 0 5 6 8 13 3 8 -1 14 -8 14 -7 0 -11
-6 -8 -14z"/>
<path d="M1513 2208 c-1 -10 3 -18 9 -18 6 0 8 3 5 7 -4 3 -2 11 3 18 7 8 6
12 -3 12 -7 0 -14 -9 -14 -19z"/>
<path d="M1037 2196 c-4 -9 -13 -13 -22 -10 -8 3 -15 2 -15 -4 0 -12 -18 -11
-39 2 -10 6 -12 5 -7 -2 4 -7 3 -12 -3 -12 -5 0 -12 5 -14 10 -3 6 -4 5 -3 -2
2 -7 9 -14 17 -14 8 -1 16 -3 19 -4 22 -8 41 -6 51 6 9 11 15 12 28 2 9 -7 13
-8 9 -4 -4 5 -3 15 4 23 6 7 8 16 4 20 -3 3 -6 0 -6 -8 0 -11 -2 -12 -9 -1 -7
11 -9 11 -14 -2z"/>
<path d="M1084 2195 c3 -23 12 -26 13 -5 1 11 -2 20 -7 20 -4 0 -7 -7 -6 -15z"/>
<path d="M876 2173 c-6 -14 -5 -15 5 -6 7 7 10 15 7 18 -3 3 -9 -2 -12 -12z"/>
<path d="M841 2161 c-8 -5 -9 -11 -3 -15 5 -3 12 1 16 9 6 17 6 18 -13 6z"/>
<path d="M881 2151 c-23 -15 -21 -38 3 -35 11 1 23 3 26 4 3 1 8 2 12 1 4 0 6
8 5 19 -2 23 -17 27 -17 4 0 -8 -5 -12 -10 -9 -6 4 -8 11 -5 16 8 11 4 11 -14
0z m14 -21 c3 -6 -1 -7 -9 -4 -18 7 -21 14 -7 14 6 0 13 -4 16 -10z"/>
<path d="M1736 2122 c-2 -4 -1 -14 4 -22 7 -11 9 -9 7 8 -1 24 -3 26 -11 14z"/>
<path d="M703 2068 c6 -16 -17 -33 -31 -24 -4 2 -7 -9 -7 -24 -1 -29 5 -30 37
-3 16 14 17 48 2 62 -4 3 -5 -2 -1 -11z m-3 -43 c-7 -8 -17 -15 -22 -15 -6 0
-5 7 2 15 7 8 17 15 22 15 6 0 5 -7 -2 -15z"/>
<path d="M1748 2073 c7 -3 16 -2 19 1 4 3 -2 6 -13 5 -11 0 -14 -3 -6 -6z"/>
<path d="M635 2061 c-3 -5 -2 -12 3 -15 5 -3 9 1 9 9 0 17 -3 19 -12 6z"/>
<path d="M585 2019 c-3 -4 2 -6 10 -5 21 3 28 13 10 13 -9 0 -18 -4 -20 -8z"/>
<path d="M1831 2014 c0 -11 3 -14 6 -6 3 7 2 16 -1 19 -3 4 -6 -2 -5 -13z"/>
<path d="M1835 1970 c-3 -5 -1 -10 4 -10 6 0 11 5 11 10 0 6 -2 10 -4 10 -3 0
-8 -4 -11 -10z"/>
<path d="M595 1940 c-3 -5 -1 -10 4 -10 6 0 11 5 11 10 0 6 -2 10 -4 10 -3 0
-8 -4 -11 -10z"/>
<path d="M1179 1928 c-5 -16 -4 -50 1 -53 4 -3 7 6 6 18 -1 12 3 25 9 29 6 5
6 8 -2 8 -7 0 -13 -1 -14 -2z"/>
<path d="M1310 1921 c0 -6 4 -13 10 -16 6 -3 7 1 4 9 -7 18 -14 21 -14 7z"/>
<path d="M1495 1913 c3 -10 1 -13 -8 -10 -8 3 -20 1 -28 -4 -9 -6 -4 -8 18 -5
18 2 42 -3 54 -12 12 -9 19 -10 15 -4 -4 7 -1 12 8 12 20 0 20 -5 0 -24 -8 -9
-11 -16 -5 -16 6 0 15 9 20 19 9 15 6 22 -17 37 -34 24 -65 27 -57 7z m41 -11
c1 -7 0 -8 -3 -2 -2 5 -9 8 -14 4 -5 -3 -9 0 -9 6 0 15 23 7 26 -8z"/>
<path d="M1274 1906 c1 -8 5 -18 8 -22 4 -3 5 1 4 10 -1 8 -5 18 -8 22 -4 3
-5 -1 -4 -10z"/>
<path d="M499 1893 c-13 -16 -12 -17 4 -4 9 7 17 15 17 17 0 8 -8 3 -21 -13z"/>
<path d="M1080 1880 c-9 -6 -10 -10 -3 -10 6 0 15 5 18 10 8 12 4 12 -15 0z"/>
<path d="M1355 1880 c3 -5 8 -10 11 -10 2 0 4 5 4 10 0 6 -5 10 -11 10 -5 0
-7 -4 -4 -10z"/>
<path d="M990 1871 c0 -7 -4 -10 -8 -7 -5 3 -9 -2 -9 -10 0 -13 2 -13 16 0 8
9 12 19 8 22 -4 4 -7 2 -7 -5z"/>
<path d="M1473 1864 c0 -8 3 -12 5 -9 3 3 11 0 19 -7 11 -8 12 -7 7 5 -7 21
-31 29 -31 11z"/>
<path d="M846 1862 c-3 -5 1 -9 9 -9 8 0 15 4 15 9 0 4 -4 8 -9 8 -6 0 -12 -4
-15 -8z"/>
<path d="M1267 1859 c7 -7 15 -10 18 -7 3 3 -2 9 -12 12 -14 6 -15 5 -6 -5z"/>
<path d="M1786 1844 c-19 -14 -43 -13 -80 2 -19 7 -19 7 1 -22 11 -16 18 -36
16 -44 -4 -12 -3 -12 5 -1 8 11 10 11 15 0 4 -11 6 -11 6 -1 1 7 6 10 13 6 6
-4 8 -3 5 3 -9 14 38 44 49 33 6 -6 15 -1 23 13 8 12 10 19 6 15 -4 -4 -15 -3
-24 1 -11 6 -23 4 -35 -5z m24 2 c0 -2 -8 -10 -17 -17 -16 -13 -17 -12 -4 4
13 16 21 21 21 13z m-47 -29 c7 4 6 -1 -2 -10 -10 -13 -17 -15 -27 -6 -16 13
-19 23 -4 14 6 -3 10 0 11 7 0 10 2 10 6 0 2 -6 10 -9 16 -5z"/>
<path d="M416 1833 c-4 -9 -3 -20 1 -24 4 -4 9 3 9 17 2 28 -1 31 -10 7z"/>
<path d="M896 1825 c-3 -8 -1 -15 4 -15 6 0 10 7 10 15 0 8 -2 15 -4 15 -2 0
-6 -7 -10 -15z"/>
<path d="M929 1817 c6 -8 7 -18 3 -22 -4 -5 -1 -5 6 -1 10 6 10 11 1 22 -6 8
-14 14 -16 14 -3 0 0 -6 6 -13z"/>
<path d="M1470 1816 c0 -2 8 -10 18 -17 15 -13 16 -12 3 4 -13 16 -21 21 -21
13z"/>
<path d="M1595 1810 c-3 -5 -1 -10 4 -10 6 0 11 5 11 10 0 6 -2 10 -4 10 -3 0
-8 -4 -11 -10z"/>
<path d="M769 1803 c-1 -4 -2 -15 -3 -23 0 -8 -6 -15 -13 -15 -20 0 -23 -11
-4 -12 21 -2 46 42 31 52 -6 4 -11 3 -11 -2z"/>
<path d="M1560 1795 c-7 -8 -17 -12 -24 -8 -6 3 -7 2 -3 -2 4 -5 15 -10 23
-11 9 -1 13 0 10 3 -3 4 -1 12 5 20 6 7 9 13 6 13 -2 0 -10 -7 -17 -15z"/>
<path d="M2030 1800 c0 -5 0 -12 0 -15 0 -12 14 -4 16 10 1 8 -2 15 -7 15 -5
0 -9 -4 -9 -10z"/>
<path d="M873 1785 c0 -8 4 -12 9 -9 5 3 6 10 3 15 -9 13 -12 11 -12 -6z"/>
<path d="M2093 1769 c-2 -23 3 -25 10 -4 4 8 3 16 -1 19 -4 3 -9 -4 -9 -15z"/>
<path d="M399 1775 c-1 -3 -2 -8 -3 -12 -1 -5 -7 -19 -14 -33 -12 -22 -11 -23
1 -8 8 10 16 16 18 13 3 -2 5 7 5 20 0 22 -4 33 -7 20z"/>
<path d="M895 1761 c-3 -5 -2 -12 3 -15 5 -3 9 1 9 9 0 17 -3 19 -12 6z"/>
<path d="M1586 1761 c-4 -5 4 -7 16 -3 16 4 19 2 13 -8 -5 -9 -4 -11 4 -6 6 4
9 12 6 17 -8 12 -32 12 -39 0z"/>
<path d="M2045 1760 c-3 -5 -2 -10 4 -10 5 0 13 5 16 10 3 6 2 10 -4 10 -5 0
-13 -4 -16 -10z"/>
<path d="M2065 1740 c-4 -6 -11 -7 -17 -4 -7 4 -8 2 -4 -5 6 -8 12 -9 20 -2 7
6 17 7 21 3 5 -4 5 -1 1 6 -9 15 -13 15 -21 2z"/>
<path d="M1550 1736 c0 -2 8 -10 18 -17 15 -13 16 -12 3 4 -13 16 -21 21 -21
13z"/>
<path d="M2061 1711 c-18 -12 -23 -39 -9 -48 6 -3 8 -1 4 5 -3 5 -1 12 6 14 6
2 12 12 14 21 3 20 3 19 -15 8z"/>
<path d="M2093 1693 c0 -9 4 -10 14 -2 7 6 13 12 13 14 0 1 -6 2 -13 2 -8 0
-14 -6 -14 -14z"/>
<path d="M290 1665 c0 -5 5 -17 10 -25 5 -8 10 -10 10 -5 0 6 -5 17 -10 25 -5
8 -10 11 -10 5z"/>
<path d="M1514 1658 c-4 -7 -4 -10 1 -6 4 4 15 2 24 -5 14 -11 14 -10 2 6 -16
20 -18 21 -27 5z"/>
<path d="M641 1646 c-15 -18 -1 -28 17 -13 13 10 14 8 8 -13 l-8 -25 17 23 c9
13 14 26 11 30 -12 11 -35 10 -45 -2z"/>
<path d="M740 1640 c-9 -6 -10 -10 -3 -10 6 0 15 5 18 10 8 12 4 12 -15 0z"/>
<path d="M770 1641 c0 -6 4 -13 10 -16 6 -3 7 1 4 9 -7 18 -14 21 -14 7z"/>
<path d="M330 1620 c0 -5 5 -10 10 -10 6 0 10 5 10 10 0 6 -4 10 -10 10 -5 0
-10 -4 -10 -10z"/>
<path d="M695 1619 c-4 -6 -4 -13 -1 -16 3 -4 6 -1 6 6 0 7 5 9 12 5 7 -4 8
-3 4 4 -9 15 -13 15 -21 1z"/>
<path d="M1507 1619 c7 -9 10 -19 6 -22 -3 -4 -1 -7 5 -7 17 0 15 16 -5 31
-16 12 -17 12 -6 -2z"/>
<path d="M2095 1619 c-11 -16 -1 -19 13 -3 7 8 8 14 3 14 -5 0 -13 -5 -16 -11z"/>
<path d="M620 1595 c-6 -8 -9 -19 -6 -24 4 -6 -3 -15 -14 -21 -11 -6 -18 -15
-15 -21 10 -15 25 -11 25 7 0 10 6 14 15 11 8 -4 17 -2 20 3 3 5 11 8 18 6 7
-1 8 -1 4 2 -4 2 -2 11 4 19 7 8 8 13 3 12 -5 -1 -18 -1 -29 0 -17 1 -18 3 -5
11 8 5 10 10 4 10 -6 0 -17 -7 -24 -15z m29 -32 c-10 -11 -14 -11 -20 -1 -14
21 -10 26 11 21 16 -4 18 -8 9 -20z"/>
<path d="M2023 1585 c0 -8 4 -12 9 -9 5 3 6 10 3 15 -9 13 -12 11 -12 -6z"/>
<path d="M306 1582 c-3 -4 4 -9 15 -9 23 -2 25 3 4 10 -8 4 -16 3 -19 -1z"/>
<path d="M1436 1573 c-6 -14 -5 -15 5 -6 7 7 10 15 7 18 -3 3 -9 -2 -12 -12z"/>
<path d="M2150 1579 c0 -5 5 -7 10 -4 6 3 10 8 10 11 0 2 -4 4 -10 4 -5 0 -10
-5 -10 -11z"/>
<path d="M1500 1572 c0 -6 -8 -9 -17 -6 -15 5 -16 4 -3 -5 16 -11 40 3 27 16
-4 3 -7 1 -7 -5z"/>
<path d="M250 1540 c0 -5 5 -10 11 -10 5 0 7 5 4 10 -3 6 -8 10 -11 10 -2 0
-4 -4 -4 -10z"/>
<path d="M1435 1541 c-3 -5 -2 -12 3 -15 5 -3 9 1 9 9 0 17 -3 19 -12 6z"/>
<path d="M1471 1534 c0 -11 3 -14 6 -6 3 7 2 16 -1 19 -3 4 -6 -2 -5 -13z"/>
<path d="M2161 1534 c0 -11 3 -14 6 -6 3 7 2 16 -1 19 -3 4 -6 -2 -5 -13z"/>
<path d="M620 1519 c0 -4 7 -10 16 -13 8 -3 13 -2 9 3 -3 5 1 11 7 14 7 3 3 4
-9 4 -13 -1 -23 -4 -23 -8z"/>
<path d="M674 1522 c4 -3 14 -7 22 -8 9 -1 13 0 10 4 -4 3 -14 7 -22 8 -9 1
-13 0 -10 -4z"/>
<path d="M595 1500 c3 -5 8 -10 11 -10 2 0 4 5 4 10 0 6 -5 10 -11 10 -5 0 -7
-4 -4 -10z"/>
<path d="M1390 1504 c0 -20 27 -37 36 -23 4 7 3 9 -4 5 -6 -3 -15 2 -21 11 -6
10 -11 13 -11 7z"/>
<path d="M1436 1498 c3 -4 11 -5 19 -1 21 7 19 12 -4 10 -11 0 -18 -5 -15 -9z"/>
<path d="M620 1485 c0 -7 30 -13 34 -7 3 4 -4 9 -15 9 -10 1 -19 0 -19 -2z"/>
<path d="M2196 1478 c3 -5 10 -6 15 -3 13 9 11 12 -6 12 -8 0 -12 -4 -9 -9z"/>
<path d="M596 1465 c-4 -11 -4 -16 0 -12 4 4 12 -1 19 -10 9 -13 14 -13 20 -3
6 9 4 11 -5 5 -10 -6 -12 -4 -7 9 4 9 3 15 -2 11 -5 -3 -11 0 -13 7 -3 7 -7 4
-12 -7z"/>
<path d="M1421 1459 c-13 -10 -27 -16 -32 -13 -5 3 -6 -3 -2 -12 4 -12 3 -15
-6 -10 -10 7 -10 4 0 -12 7 -11 18 -19 25 -18 16 3 46 28 39 34 -3 3 -1 10 5
16 18 23 -4 35 -29 15z m20 -12 c-6 -8 -9 -16 -6 -19 10 -10 -21 -27 -34 -19
-10 7 -8 13 10 30 25 23 48 29 30 8z"/>
<path d="M1410 1419 c0 -5 5 -7 10 -4 6 3 10 8 10 11 0 2 -4 4 -10 4 -5 0 -10
-5 -10 -11z"/>
<path d="M656 1453 c-6 -14 -5 -15 5 -6 7 7 10 15 7 18 -3 3 -9 -2 -12 -12z"/>
<path d="M215 1429 c-4 -6 -5 -12 -2 -15 2 -3 7 2 10 11 7 17 1 20 -8 4z"/>
<path d="M256 1419 c4 -7 44 0 44 7 0 2 -11 3 -24 2 -14 -1 -23 -5 -20 -9z"/>
<path d="M634 1415 c-4 -8 -11 -12 -17 -8 -5 3 -7 1 -4 -5 4 -5 17 -8 29 -4
12 3 17 7 10 10 -7 2 -10 8 -6 13 3 5 3 9 -1 9 -3 0 -8 -7 -11 -15z"/>
<path d="M710 1420 c0 -5 5 -10 11 -10 5 0 7 5 4 10 -3 6 -8 10 -11 10 -2 0
-4 -4 -4 -10z"/>
<path d="M640 1386 c0 -2 8 -10 18 -17 15 -13 16 -12 3 4 -13 16 -21 21 -21
13z"/>
<path d="M774 1362 c3 -6 -2 -15 -11 -21 -16 -9 -16 -10 -2 -11 20 0 33 27 17
36 -6 4 -8 3 -4 -4z"/>
<path d="M1236 1353 c-6 -14 -5 -15 5 -6 7 7 10 15 7 18 -3 3 -9 -2 -12 -12z"/>
<path d="M610 1336 c0 -20 17 -29 26 -15 5 8 3 9 -6 4 -10 -6 -12 -4 -7 8 3
10 2 17 -3 17 -6 0 -10 -6 -10 -14z"/>
<path d="M253 1311 c0 -11 5 -18 9 -15 4 3 5 11 1 19 -7 21 -12 19 -10 -4z"/>
<path d="M1107 1319 c7 -7 15 -10 18 -7 3 3 -2 9 -12 12 -14 6 -15 5 -6 -5z"/>
<path d="M2221 1304 c0 -11 3 -14 6 -6 3 7 2 16 -1 19 -3 4 -6 -2 -5 -13z"/>
<path d="M634 1298 c-3 -4 0 -16 6 -25 9 -16 10 -15 5 4 -5 18 -3 22 9 17 9
-3 16 -2 16 3 0 12 -29 13 -36 1z"/>
<path d="M1055 1300 c-4 -6 -1 -9 7 -8 7 2 12 -3 10 -10 -1 -8 2 -11 8 -7 8 5
7 11 -1 21 -14 17 -16 17 -24 4z"/>
<path d="M1174 1297 c-4 -7 -4 -9 1 -5 4 4 14 3 22 -3 8 -7 13 -8 13 -1 0 15
-28 23 -36 9z"/>
<path d="M1220 1282 c0 -4 5 -13 12 -20 9 -9 9 -12 1 -12 -7 0 -15 5 -19 11
-4 8 -9 8 -17 0 -16 -16 -27 -13 -27 7 0 14 -2 15 -10 2 -6 -11 -4 -18 9 -25
10 -5 16 -17 14 -25 -3 -9 0 -8 7 3 9 13 15 15 24 8 9 -8 17 -6 28 7 13 15 13
19 -4 35 -10 9 -18 13 -18 9z m1 -39 c12 -16 12 -17 -2 -6 -9 7 -20 9 -24 5
-5 -4 -5 -1 -1 6 9 16 11 15 27 -5z"/>
<path d="M2203 1274 c0 -8 3 -12 5 -9 3 3 11 0 19 -7 10 -8 17 -8 26 1 9 10 8
11 -5 6 -10 -4 -18 -3 -18 3 0 5 -6 12 -13 15 -8 3 -14 -1 -14 -9z"/>
<path d="M610 1260 c0 -5 5 -10 10 -10 6 0 10 5 10 10 0 6 -4 10 -10 10 -5 0
-10 -4 -10 -10z"/>
<path d="M2275 1261 c-3 -5 -2 -12 3 -15 5 -3 9 1 9 9 0 17 -3 19 -12 6z"/>
<path d="M260 1246 c0 -2 7 -6 15 -10 8 -3 15 -1 15 4 0 6 -7 10 -15 10 -8 0
-15 -2 -15 -4z"/>
<path d="M2213 1237 c3 -9 2 -19 -3 -22 -6 -4 -10 1 -10 10 0 9 -5 13 -10 10
-6 -4 -7 -12 -3 -18 4 -7 8 -20 8 -29 0 -10 3 -18 8 -18 4 0 12 0 19 0 6 0 3
6 -8 14 -18 14 -18 15 -1 21 19 8 23 30 5 41 -8 5 -9 2 -5 -9z"/>
<path d="M261 1214 c0 -11 3 -14 6 -6 3 7 2 16 -1 19 -3 4 -6 -2 -5 -13z"/>
<path d="M1114 1196 c3 -25 12 -28 27 -9 7 10 9 15 5 11 -5 -4 -15 -3 -22 3
-9 7 -12 6 -10 -5z"/>
<path d="M2250 1200 c0 -5 5 -10 11 -10 5 0 7 5 4 10 -3 6 -8 10 -11 10 -2 0
-4 -4 -4 -10z"/>
<path d="M270 1181 c0 -4 11 -7 25 -7 14 0 25 3 25 7 0 3 -11 7 -25 7 -14 0
-25 -4 -25 -7z"/>
<path d="M2230 1151 c0 -5 7 -12 16 -15 14 -5 15 -4 4 9 -14 17 -20 19 -20 6z"/>
<path d="M275 1110 c3 -5 8 -10 11 -10 2 0 4 5 4 10 0 6 -5 10 -11 10 -5 0 -7
-4 -4 -10z"/>
<path d="M2233 1086 c0 -15 22 -15 34 0 4 5 4 6 -1 2 -5 -4 -14 -3 -21 2 -8 7
-12 5 -12 -4z"/>
<path d="M305 1033 c-16 -12 -16 -14 -3 -10 10 3 20 2 23 -3 4 -6 -2 -10 -12
-10 -17 -1 -17 -1 0 -11 23 -13 22 -24 -5 -38 -22 -11 -6 -8 30 6 15 6 15 5 3
-11 -13 -15 -13 -19 0 -26 21 -14 32 5 18 31 -7 13 -12 28 -11 32 1 5 -2 6 -8
2 -13 -8 -13 8 0 21 20 20 -12 35 -35 17z m55 -93 c0 -5 -2 -10 -4 -10 -3 0
-8 5 -11 10 -3 6 -1 10 4 10 6 0 11 -4 11 -10z"/>
<path d="M2216 1042 c-3 -5 1 -9 9 -9 8 0 12 4 9 9 -3 4 -7 8 -9 8 -2 0 -6 -4
-9 -8z"/>
<path d="M290 979 c0 -5 5 -7 10 -4 6 3 10 8 10 11 0 2 -4 4 -10 4 -5 0 -10
-5 -10 -11z"/>
<path d="M315 910 c3 -5 8 -10 11 -10 2 0 4 5 4 10 0 6 -5 10 -11 10 -5 0 -7
-4 -4 -10z"/>
<path d="M343 896 c1 -6 -4 -10 -11 -8 -8 1 -11 -2 -7 -8 5 -8 13 -6 26 6 23
21 23 21 5 21 -8 0 -14 -5 -13 -11z"/>
<path d="M295 880 c-3 -5 -1 -10 4 -10 6 0 11 5 11 10 0 6 -2 10 -4 10 -3 0
-8 -4 -11 -10z"/>
<path d="M369 843 c-13 -16 -12 -17 4 -4 20 15 22 9 6 -21 -8 -15 -8 -19 0
-14 6 4 11 1 11 -6 0 -8 4 -6 11 4 7 12 6 24 -1 38 -13 24 -14 24 -31 3z"/>
<path d="M335 831 c-3 -5 -2 -12 3 -15 5 -3 9 1 9 9 0 17 -3 19 -12 6z"/>
<path d="M2110 820 c0 -5 5 -10 11 -10 5 0 7 5 4 10 -3 6 -8 10 -11 10 -2 0
-4 -4 -4 -10z"/>
<path d="M2131 784 c0 -11 3 -14 6 -6 3 7 2 16 -1 19 -3 4 -6 -2 -5 -13z"/>
<path d="M375 769 c-4 -6 -5 -12 -2 -15 2 -3 7 2 10 11 7 17 1 20 -8 4z"/>
<path d="M396 763 c-6 -14 -5 -15 5 -6 7 7 10 15 7 18 -3 3 -9 -2 -12 -12z"/>
<path d="M2110 741 c0 -6 4 -12 8 -15 5 -3 9 1 9 9 0 8 -4 15 -9 15 -4 0 -8
-4 -8 -9z"/>
<path d="M2055 680 c3 -5 8 -10 11 -10 2 0 4 5 4 10 0 6 -5 10 -11 10 -5 0 -7
-4 -4 -10z"/>
<path d="M476 654 c-9 -8 -16 -18 -16 -22 0 -3 5 -1 11 5 9 9 17 6 31 -10 11
-12 17 -16 13 -9 -3 6 -2 12 3 12 11 0 25 -36 23 -60 0 -10 1 -11 5 -2 3 6 11
9 17 5 7 -4 6 0 -1 10 -8 9 -11 21 -7 27 12 19 -15 41 -36 29 -18 -9 -24 -2
-20 24 2 11 -6 8 -23 -9z m72 -39 c-3 -3 -9 2 -12 12 -6 14 -5 15 5 6 7 -7 10
-15 7 -18z"/>
<path d="M1947 603 c-3 -5 -1 -17 4 -28 6 -17 7 -16 6 8 -1 28 -3 32 -10 20z"/>
<path d="M495 590 c-3 -5 -2 -18 4 -27 7 -14 9 -12 8 10 -2 30 -3 31 -12 17z"/>
<path d="M1991 593 c-1 -17 16 -25 25 -12 4 7 3 9 -4 5 -5 -3 -13 0 -15 6 -4
9 -6 10 -6 1z"/>
<path d="M571 552 c-1 -8 8 -16 19 -19 20 -5 23 -13 21 -43 0 -8 2 -10 5 -4 3
7 14 10 24 7 11 -3 20 0 20 6 0 5 -6 8 -14 5 -8 -3 -19 3 -25 14 -8 15 -8 21
1 24 9 3 9 6 0 12 -7 4 -12 2 -12 -3 0 -15 -27 -14 -33 2 -4 9 -6 9 -6 -1z"/>
<path d="M540 546 c0 -2 8 -10 18 -17 15 -13 16 -12 3 4 -13 16 -21 21 -21 13z"/>
<path d="M1920 540 c-12 -7 -10 -9 8 -7 12 0 22 5 22 9 0 11 -12 10 -30 -2z"/>
<path d="M1986 538 c3 -5 10 -6 15 -3 13 9 11 12 -6 12 -8 0 -12 -4 -9 -9z"/>
<path d="M1820 498 c-17 -22 -30 -45 -27 -52 3 -8 0 -20 -6 -27 -10 -11 -9
-11 4 -1 10 8 15 22 13 35 -2 12 -2 17 1 10 4 -7 15 -2 31 13 25 26 32 40 12
28 -7 -4 -8 -3 -4 5 6 9 11 9 22 0 12 -10 13 -9 8 5 -3 9 -1 16 5 16 6 0 11
-4 11 -10 0 -5 5 -10 11 -10 8 0 8 4 0 14 -20 23 -46 15 -81 -26z m20 -2 c0
-2 -8 -10 -17 -17 -16 -13 -17 -12 -4 4 13 16 21 21 21 13z"/>
<path d="M550 506 c0 -2 7 -7 16 -10 8 -3 12 -2 9 4 -6 10 -25 14 -25 6z"/>
<path d="M1896 467 c3 -10 9 -15 12 -12 3 3 0 11 -7 18 -10 9 -11 8 -5 -6z"/>
<path d="M1711 425 c-24 -19 -47 -32 -52 -29 -16 9 -10 -3 8 -17 11 -10 14
-10 9 -1 -11 18 5 15 21 -5 13 -16 13 -16 3 5 -13 27 1 29 26 5 17 -17 18 -17
11 0 -4 10 -7 21 -7 23 0 3 -4 2 -10 -1 -5 -3 -10 -2 -10 3 0 6 7 12 15 16 8
3 15 1 15 -4 0 -6 8 -10 18 -10 14 0 14 2 3 9 -11 7 -10 10 5 14 17 4 17 5 1
6 -10 0 -15 6 -12 11 9 15 4 12 -44 -25z"/>
<path d="M1826 444 c-5 -14 -4 -15 9 -4 17 14 19 20 6 20 -5 0 -12 -7 -15 -16z"/>
<path d="M676 427 c3 -10 9 -15 12 -12 3 3 0 11 -7 18 -10 9 -11 8 -5 -6z"/>
<path d="M750 396 c0 -2 7 -9 15 -16 13 -11 14 -10 9 4 -5 14 -24 23 -24 12z"/>
<path d="M1673 345 c0 -8 4 -12 9 -9 5 3 6 10 3 15 -9 13 -12 11 -12 -6z"/>
<path d="M867 319 c7 -7 15 -10 18 -7 3 3 -2 9 -12 12 -14 6 -15 5 -6 -5z"/>
<path d="M1572 319 c2 -7 -9 -13 -25 -14 -15 -1 -30 -5 -33 -8 -3 -3 8 -5 25
-3 36 3 59 20 42 31 -7 3 -10 1 -9 -6z"/>
<path d="M992 311 c-11 -7 -10 -9 3 -14 11 -5 14 -3 9 5 -5 8 -2 9 10 5 10 -4
15 -3 11 3 -7 12 -16 12 -33 1z"/>
<path d="M1346 308 c3 -4 9 -8 15 -8 5 0 9 4 9 8 0 5 -7 9 -15 9 -8 0 -12 -4
-9 -9z"/>
<path d="M1595 300 c-3 -5 -1 -10 4 -10 6 0 11 5 11 10 0 6 -2 10 -4 10 -3 0
-8 -4 -11 -10z"/>
<path d="M1388 288 c10 -13 10 -17 0 -21 -7 -2 -10 -7 -7 -11 3 -4 11 0 18 7
9 11 7 17 -6 28 -16 13 -17 12 -5 -3z"/>
<path d="M1028 283 c7 -3 16 -2 19 1 4 3 -2 6 -13 5 -11 0 -14 -3 -6 -6z"/>
<path d="M1435 279 c-4 -6 -5 -12 -2 -15 2 -3 7 2 10 11 7 17 1 20 -8 4z"/>
<path d="M1181 264 c0 -11 3 -14 6 -6 3 7 2 16 -1 19 -3 4 -6 -2 -5 -13z"/>
<path d="M1300 260 c8 -5 20 -10 25 -10 6 0 3 5 -5 10 -8 5 -19 10 -25 10 -5
0 -3 -5 5 -10z"/>
<path d="M1526 258 c3 -5 10 -6 15 -3 13 9 11 12 -6 12 -8 0 -12 -4 -9 -9z"/>
<path d="M1033 235 c0 -8 4 -12 9 -9 5 3 6 10 3 15 -9 13 -12 11 -12 -6z"/>
<path d="M1213 215 c0 -8 4 -12 9 -9 5 3 6 10 3 15 -9 13 -12 11 -12 -6z"/>
</g>
</svg>
